<?xml version="1.0" encoding="utf-8"?>
<!-- Generator: Adobe Illustrator 24.1.3, SVG Export Plug-In . SVG Version: 6.00 Build 0)  -->
<svg version="1.1" id="Calque_1" xmlns="http://www.w3.org/2000/svg" xmlns:xlink="http://www.w3.org/1999/xlink" x="0px" y="0px"
	 viewBox="0 0 531.1 515.2" style="enable-background:new 0 0 531.1 515.2;" xml:space="preserve">
<style type="text/css">
	.st0{fill:#626A6F;}
	.st1{fill:#FFFFFF;}
</style>
<path class="st0" d="M394.2,502.9H134.7C65.2,502.9,8.8,446.5,8.8,377V136.3c0-69.5,56.3-125.9,125.9-125.9h259.5
	c69.5,0,125.9,56.3,125.9,125.9V377C520.1,446.5,463.7,502.9,394.2,502.9z"/>
<g>
	<path class="st1" d="M403.1,223.5c-0.1-14.7-11.9-28.6-25.2-34.1c-10.6-4.4-21.7-3.3-32.2-3.6c-41.1-1.2-82.3-0.2-123.5-0.1
		c-1.7-0.1-3.5-0.6-5.1-0.4c-9.8,1.3-7.4-5.7-7.9-11.1c-0.6-6.2,1.3-8.8,8-8.5c8.6,0.5,17.2-0.1,25.8-0.3
		c30.5,0.1,60.9,0.4,91.4,0.4c19,0,36.7,4.5,53.4,13.3c4.7,2.5,9.4,5.2,14.2,7.9c0.3-1.3,0.6-1.9,0.5-2.3c-0.4-1.4-1.1-2.7-1.6-4
		c-6.9-18.6-19.5-33.4-32.9-47.4c-23.2-24.1-72.9-47.7-88.5-50.9c-12.2,0-24.4,0-36.6,0c-38.9,0-77.8,0-116.7,0
		c-0.1,1.2-0.4,2.3-0.4,3.5c-0.1,48.1-0.1,96.3-0.2,144.4c0,4.2,1.1,8.1,2.7,11.8c6.3,14.4,16.4,24,32.9,25.4
		c3.5,1.8,7.4,1.1,11.1,1.1c44.9,0.1,89.7,0.1,134.6,0.1c6.5,0,14.3-2.5,13.1,9.5c-1,9.8-0.2,9.8-13.5,9.9
		c-20.8,0.1-41.6,0.4-62.5,0.6c-18-0.2-36,0-53.9-0.8c-19.5-0.8-38-5.8-54.7-16.2c-2.4-1.5-5.2-4.1-9.1-1.7
		c7.1,13,13.7,25.7,23.5,37.5c23.4,28.1,50.7,49.1,86.3,58.6c12,3.9,24.3,5.3,36.8,5.3c39.1,0.2,78.3,0.1,117.4,0.2
		c7,0,12.7-5.7,12.8-12.7C403.3,313.8,403.4,268.6,403.1,223.5z"/>
	<g>
		<path class="st1" d="M133.8,427.5c-1.7-0.7-3-1.8-4-3.1c-1-1.4-1.4-2.9-1.4-4.7h5.5c0.1,1.4,0.7,2.5,1.6,3.3
			c0.9,0.9,2.3,1.3,4,1.3c1.8,0,3.2-0.4,4.2-1.3c1-0.9,1.5-2,1.5-3.3c0-1.1-0.3-1.9-0.9-2.6c-0.6-0.7-1.4-1.2-2.3-1.5
			c-0.9-0.4-2.2-0.8-3.8-1.2c-2-0.5-3.7-1.1-5-1.6c-1.3-0.6-2.4-1.4-3.3-2.6c-0.9-1.2-1.4-2.7-1.4-4.7c0-1.8,0.5-3.4,1.4-4.7
			c0.9-1.4,2.2-2.4,3.8-3.1c1.6-0.7,3.5-1.1,5.6-1.1c3,0,5.5,0.8,7.5,2.3c1.9,1.5,3,3.6,3.2,6.3h-5.7c-0.1-1.1-0.6-2.1-1.6-2.9
			c-1-0.8-2.3-1.2-3.9-1.2c-1.5,0-2.7,0.4-3.6,1.1c-0.9,0.8-1.4,1.8-1.4,3.3c0,1,0.3,1.8,0.9,2.4c0.6,0.6,1.3,1.1,2.2,1.5
			c0.9,0.4,2.1,0.8,3.7,1.2c2.1,0.6,3.8,1.1,5.1,1.7s2.4,1.5,3.3,2.6c0.9,1.2,1.4,2.8,1.4,4.8c0,1.6-0.4,3.1-1.3,4.5
			c-0.9,1.4-2.1,2.6-3.8,3.4c-1.6,0.9-3.6,1.3-5.8,1.3C137.4,428.6,135.5,428.3,133.8,427.5z"/>
		<path class="st1" d="M165.2,404.2c1.5-0.8,3.2-1.2,5.1-1.2c2.2,0,4.2,0.5,5.9,1.6c1.8,1.1,3.2,2.6,4.2,4.5c1,1.9,1.5,4.1,1.5,6.6
			c0,2.5-0.5,4.7-1.5,6.7c-1,2-2.4,3.5-4.2,4.6c-1.8,1.1-3.8,1.7-5.9,1.7c-1.9,0-3.6-0.4-5.1-1.2c-1.5-0.8-2.7-1.7-3.6-2.9v15.5
			h-5.2v-36.7h5.2v3.7C162.5,405.9,163.7,405,165.2,404.2z M175.7,411.3c-0.7-1.3-1.6-2.2-2.8-2.8c-1.2-0.6-2.4-1-3.7-1
			c-1.3,0-2.5,0.3-3.7,1c-1.2,0.7-2.1,1.6-2.8,2.9c-0.7,1.3-1.1,2.8-1.1,4.5c0,1.7,0.4,3.2,1.1,4.5c0.7,1.3,1.6,2.3,2.8,2.9
			c1.2,0.7,2.4,1,3.7,1c1.3,0,2.6-0.3,3.7-1c1.2-0.7,2.1-1.7,2.8-3c0.7-1.3,1.1-2.8,1.1-4.5C176.8,414,176.4,412.5,175.7,411.3z"/>
		<path class="st1" d="M187.4,399.2c-0.6-0.6-0.9-1.4-0.9-2.4s0.3-1.7,0.9-2.4c0.6-0.6,1.4-0.9,2.4-0.9c0.9,0,1.7,0.3,2.3,0.9
			c0.6,0.6,0.9,1.4,0.9,2.4s-0.3,1.7-0.9,2.4c-0.6,0.6-1.4,0.9-2.3,0.9C188.8,400.1,188,399.8,187.4,399.2z M192.3,403.4v24.9h-5.2
			v-24.9H192.3z"/>
		<path class="st1" d="M216.9,404.2c1.6,0.8,2.8,2,3.6,3.6c0.9,1.6,1.3,3.5,1.3,5.8v14.7h-5.1v-13.9c0-2.2-0.6-3.9-1.7-5.1
			c-1.1-1.2-2.6-1.8-4.6-1.8c-1.9,0-3.5,0.6-4.6,1.8s-1.7,2.9-1.7,5.1v13.9H199v-24.9h5.2v2.8c0.8-1,1.9-1.8,3.2-2.4
			c1.3-0.6,2.7-0.9,4.2-0.9C213.6,403,215.3,403.4,216.9,404.2z"/>
		<path class="st1" d="M232.8,427.1c-1.9-1.1-3.4-2.6-4.5-4.5c-1.1-1.9-1.6-4.2-1.6-6.8c0-2.5,0.6-4.8,1.7-6.7
			c1.1-2,2.6-3.5,4.6-4.5c1.9-1.1,4.1-1.6,6.5-1.6c2.4,0,4.5,0.5,6.5,1.6c1.9,1.1,3.5,2.6,4.6,4.5c1.1,2,1.7,4.2,1.7,6.7
			c0,2.5-0.6,4.8-1.7,6.7c-1.1,2-2.7,3.5-4.7,4.5c-2,1.1-4.2,1.6-6.5,1.6C236.8,428.7,234.7,428.2,232.8,427.1z M242.9,423.3
			c1.2-0.6,2.1-1.6,2.8-2.8c0.7-1.3,1.1-2.8,1.1-4.6c0-1.8-0.3-3.3-1-4.6c-0.7-1.3-1.6-2.2-2.8-2.8c-1.1-0.6-2.4-0.9-3.7-0.9
			s-2.6,0.3-3.7,0.9c-1.1,0.6-2,1.6-2.7,2.8c-0.7,1.3-1,2.8-1,4.6c0,2.7,0.7,4.8,2.1,6.2c1.4,1.5,3.1,2.2,5.2,2.2
			C240.5,424.2,241.7,423.9,242.9,423.3z"/>
		<path class="st1" d="M292.6,404.2c1.5,0.8,2.8,2,3.7,3.6c0.9,1.6,1.3,3.5,1.3,5.8v14.7h-5.1v-13.9c0-2.2-0.6-3.9-1.7-5.1
			c-1.1-1.2-2.6-1.8-4.6-1.8s-3.5,0.6-4.6,1.8c-1.1,1.2-1.7,2.9-1.7,5.1v13.9h-5.1v-13.9c0-2.2-0.6-3.9-1.7-5.1
			c-1.1-1.2-2.6-1.8-4.6-1.8c-1.9,0-3.5,0.6-4.6,1.8c-1.1,1.2-1.7,2.9-1.7,5.1v13.9h-5.2v-24.9h5.2v2.8c0.8-1,1.9-1.8,3.2-2.4
			s2.7-0.9,4.2-0.9c2,0,3.8,0.4,5.3,1.3c1.6,0.8,2.8,2.1,3.6,3.7c0.8-1.5,1.9-2.7,3.5-3.6c1.6-0.9,3.3-1.3,5.2-1.3
			C289.3,403,291.1,403.4,292.6,404.2z"/>
		<path class="st1" d="M326.8,417.8h-19c0.2,2,0.9,3.6,2.2,4.8c1.3,1.2,3,1.8,4.9,1.8c2.8,0,4.7-1.2,5.9-3.5h5.6
			c-0.8,2.3-2.1,4.2-4.1,5.6c-2,1.5-4.4,2.2-7.3,2.2c-2.4,0-4.5-0.5-6.4-1.6c-1.9-1.1-3.4-2.6-4.4-4.5c-1.1-1.9-1.6-4.2-1.6-6.8
			c0-2.6,0.5-4.8,1.6-6.8c1-1.9,2.5-3.4,4.4-4.5c1.9-1.1,4-1.6,6.5-1.6c2.4,0,4.4,0.5,6.3,1.5c1.8,1,3.3,2.5,4.3,4.3
			c1,1.9,1.5,4,1.5,6.4C327,416.2,326.9,417,326.8,417.8z M321.6,413.6c0-1.9-0.7-3.4-2-4.6c-1.3-1.1-3-1.7-4.9-1.7
			c-1.8,0-3.3,0.6-4.6,1.7c-1.3,1.1-2,2.7-2.3,4.6H321.6z"/>
		<path class="st1" d="M349.9,404.2c1.6,0.8,2.8,2,3.6,3.6c0.9,1.6,1.3,3.5,1.3,5.8v14.7h-5.1v-13.9c0-2.2-0.6-3.9-1.7-5.1
			c-1.1-1.2-2.6-1.8-4.6-1.8c-1.9,0-3.5,0.6-4.6,1.8c-1.1,1.2-1.7,2.9-1.7,5.1v13.9h-5.2v-24.9h5.2v2.8c0.8-1,1.9-1.8,3.2-2.4
			c1.3-0.6,2.7-0.9,4.2-0.9C346.6,403,348.3,403.4,349.9,404.2z"/>
		<path class="st1" d="M361.2,409.1c1-1.9,2.5-3.4,4.2-4.5c1.8-1.1,3.8-1.6,5.9-1.6c2,0,3.7,0.4,5.1,1.2c1.5,0.8,2.6,1.7,3.5,2.9
			v-3.6h5.2v24.9h-5.2v-3.7c-0.9,1.2-2.1,2.2-3.6,2.9c-1.5,0.8-3.2,1.2-5.2,1.2c-2.1,0-4.1-0.6-5.9-1.7c-1.8-1.1-3.2-2.6-4.2-4.6
			c-1-2-1.6-4.2-1.6-6.7C359.7,413.2,360.2,411,361.2,409.1z M379,411.4c-0.7-1.3-1.6-2.2-2.8-2.9c-1.1-0.7-2.4-1-3.7-1
			c-1.3,0-2.6,0.3-3.7,1c-1.1,0.6-2.1,1.6-2.8,2.8c-0.7,1.3-1.1,2.7-1.1,4.5c0,1.7,0.4,3.2,1.1,4.5c0.7,1.3,1.6,2.3,2.8,3
			c1.2,0.7,2.4,1,3.7,1c1.3,0,2.6-0.3,3.7-1c1.1-0.7,2.1-1.6,2.8-2.9c0.7-1.3,1.1-2.8,1.1-4.5C380.1,414.1,379.7,412.6,379,411.4z"
			/>
		<path class="st1" d="M397.2,394.9v33.4H392v-33.4H397.2z"/>
	</g>
</g>
</svg>
