<?xml version="1.0" encoding="utf-8"?>
<!-- Generator: Adobe Illustrator 24.1.3, SVG Export Plug-In . SVG Version: 6.00 Build 0)  -->
<svg version="1.1" id="Calque_1" xmlns="http://www.w3.org/2000/svg" xmlns:xlink="http://www.w3.org/1999/xlink" x="0px" y="0px"
	 viewBox="0 0 531.1 515.2" style="enable-background:new 0 0 531.1 515.2;" xml:space="preserve">
<style type="text/css">
	.st0{fill:#626A6F;}
	.st1{fill:#FFFFFF;}
</style>
<path class="st0" d="M394.2,502.9H134.7C65.2,502.9,8.8,446.5,8.8,377V136.3c0-69.5,56.3-125.9,125.9-125.9h259.5
	c69.5,0,125.9,56.3,125.9,125.9V377C520.1,446.5,463.7,502.9,394.2,502.9z"/>
<g>
	<g>
		<path class="st1" d="M181.5,400.1c0-16,13-29,29-29.1c16.2-0.1,29.2,12.9,29.3,29.2c0,16.2-13,29.1-29.4,29
			C194.4,429.1,181.5,416.2,181.5,400.1z M225.8,400.1c0-8.3-6.6-15.1-14.9-15.2c-8.5-0.1-15.4,6.6-15.5,15
			c-0.1,8.4,6.8,15.4,15.1,15.4C219,415.4,225.8,408.6,225.8,400.1z"/>
		<path class="st1" d="M404,428.1c-5,0-9.8,0.1-14.6-0.1c-0.8,0-2.2-1.2-2.4-2c-1.4-7.3-6-9-12.7-8.1c-3.1,0.5-6.4,0.2-9.6,0
			c-1.9-0.1-2.9,0.6-3.6,2.4c-3.2,7.8-3.3,7.8-11.7,7.8c-2.4,0-4.8,0-7.8,0c2.4-5.7,4.6-10.9,6.8-16c5.3-12.5,10.7-25.1,15.9-37.7
			c0.9-2.1,1.9-3,4.2-2.9c3.3,0.2,6.6-0.1,9.9,0.1c1,0.1,2.5,0.9,2.9,1.7c7.6,17.7,15.1,35.4,22.6,53.2
			C404.1,426.8,404,427.2,404,428.1z M373.6,391.4c-0.3-0.1-0.6-0.1-1-0.2c-1.9,4.7-3.7,9.4-5.7,14.5c4.3,0,8,0,12.3,0
			C377.2,400.7,375.4,396.1,373.6,391.4z"/>
		<path class="st1" d="M112.1,393.8c-1.7,4-3.2,7.6-4.9,11.1c-0.3,0.6-1.8,1-2.7,1c-3.5,0.1-7,0.1-10.5,0c-2.1-0.1-2.8,0.8-2.7,2.8
			c0.1,6.8-0.6,5.9,5.7,5.9c7.1,0,14.3,0.1,21.4,0c2.4,0,3.2,0.8,3.1,3.2c-0.2,2.5-0.1,5.1,0,7.7c0,1.7-0.5,2.6-2.3,2.6
			C105,428,90.9,428,76.8,428c-0.2,0-0.4-0.2-0.8-0.4c-0.1-0.8-0.2-1.7-0.2-2.6c0-16.6,0-33.2-0.1-49.9c0-2.5,0.7-3.3,3.2-3.2
			c13.2,0.1,26.4,0.1,39.6,0.1c0.6,0,1.2,0.1,2.6,0.2c-1.9,4.3-3.6,8.4-5.5,12.3c-0.3,0.6-1.9,0.7-2.9,0.7c-6.3,0.1-12.6,0.1-18.9,0
			c-2.1,0-3,0.6-2.7,2.8c0.1,0.9,0.1,1.9,0,2.9c-0.2,2.2,0.8,2.8,2.8,2.7c4.8-0.1,9.6,0,14.4,0C109.4,393.6,110.4,393.7,112.1,393.8
			z"/>
		<path class="st1" d="M246.1,400c0-8.4,0-16.8,0-25.2c0-1.5,0-2.9,2.1-2.8c9.6,0.2,19.2-0.1,28.7,0.8c9.9,0.9,16.2,8.1,16.7,17.6
			c0.6,10.1-4.5,17.8-14.3,20.3c-4.6,1.1-9.5,1.2-14.2,1.4c-2.4,0.1-3.5,0.7-3.3,3.3c0.2,3.4-0.1,6.8,0.1,10.2
			c0.1,2.2-0.9,2.7-2.9,2.6c-3.2-0.1-6.4-0.2-9.6,0c-2.5,0.2-3.4-0.7-3.3-3.2C246.2,416.6,246.1,408.3,246.1,400z M261.8,392.5
			c0,1.4,0.1,2.8,0,4.1c-0.3,2.5,0.7,3.3,3.1,3.1c2.2-0.2,4.5,0.1,6.7-0.3c5.3-0.8,8-5.9,5.7-10.5c-1.5-3-4.4-3.8-7.5-3.9
			C261.8,384.8,261.8,384.8,261.8,392.5z"/>
		<path class="st1" d="M124.8,371.9c5.4,0,10.4-0.1,15.4,0.1c0.9,0,2.1,1.6,2.5,2.7c3.5,9.5,6.9,19,10.4,28.5
			c0.3,0.9,0.8,1.8,1.9,2.7c1.9-5.3,3.9-10.7,5.8-16c1.8-5,3.6-10,5.3-15c0.7-2.1,1.8-3.1,4.2-2.9c4.4,0.2,8.9,0.1,14,0.1
			c-1.4,3.7-2.6,6.8-3.9,9.9c-5.8,14.3-11.6,28.6-17.3,42.9c-1,2.7-2.3,4-5.3,3.6c-2.8-0.3-5.8,0.1-8.6-0.2c-1-0.1-2.5-1-2.8-1.8
			c-7.1-17.4-14.2-34.9-21.2-52.4C125,373.6,125,373.1,124.8,371.9z"/>
		<path class="st1" d="M395.3,372c5.9,0,11.1-0.1,16.2,0.1c0.9,0,2.1,1.4,2.7,2.4c3.3,5.7,6.5,11.4,10.1,17.7c0.8-1.3,1.4-2.1,1.9-3
			c2.8-4.9,5.7-9.8,8.4-14.7c1-1.8,2.1-2.6,4.3-2.5c4.5,0.2,9.1,0.1,14.3,0.1c-0.8,1.6-1.3,2.6-1.8,3.5
			c-5.8,9.4-11.6,18.8-17.2,28.4c-1.1,1.9-1.7,4.3-1.8,6.5c-0.3,4.9-0.2,9.8-0.1,14.7c0,2.1-0.6,3.1-2.9,3c-3.4-0.1-6.8-0.1-10.2,0
			c-2.2,0.1-2.7-0.9-2.7-2.9c0.1-5.1,0.2-10.2,0-15.3c-0.1-1.8-0.6-3.8-1.5-5.3c-6-10.1-12.1-20-18.2-30
			C396.3,373.9,396,373.3,395.3,372z"/>
		<path class="st1" d="M339.1,414.6c-1.9,4.4-3.6,8.4-5.4,12.3c-0.3,0.6-1.5,1.1-2.4,1.1c-10,0.1-20,0-30,0.1
			c-1.9,0-2.3-0.9-2.3-2.5c0-17,0-34.1,0-51.1c0-2,0.9-2.5,2.8-2.5c3.2,0.1,6.4,0.1,9.6,0c2.5-0.1,3.3,0.8,3.3,3.3
			c-0.1,11.9,0,23.9-0.1,35.8c0,2.7,0.8,3.5,3.4,3.4c5.7-0.2,11.5-0.1,17.3,0C336.3,414.4,337.4,414.5,339.1,414.6z"/>
	</g>
	<g>
		<polygon class="st1" points="166.4,150.2 166.4,204.4 393.2,146.3 419.6,84.2 		"/>
		<polygon class="st1" points="166.4,215.4 166.4,266.5 353.1,240.9 376.4,185 		"/>
		<polygon class="st1" points="166.4,278.8 166.4,328.6 317.4,328.6 339,278.8 		"/>
	</g>
</g>
</svg>
