<svg data-name="Calque 1" xmlns="http://www.w3.org/2000/svg" xmlns:xlink="http://www.w3.org/1999/xlink" viewBox="0 0 429.51 110.59"><defs><linearGradient id="m" x1="380.32" y1="92.92" x2="380.32" y2="46.54" xlink:href="#a"/><linearGradient id="c" x1="214.76" y1="102.59" x2="214.76" y2="8" gradientUnits="userSpaceOnUse"><stop offset="0" stop-color="#831f82"/><stop offset="1" stop-color="#43398e"/></linearGradient><linearGradient id="e" x1="214.76" y1="96.02" x2="214.76" y2="14.58" gradientUnits="userSpaceOnUse"><stop offset="0" stop-color="#c7017f"/><stop offset="1" stop-color="#722283"/></linearGradient><linearGradient id="a" x1="72.31" y1="92.4" x2="72.31" y2="47.43" gradientUnits="userSpaceOnUse"><stop offset="0" stop-color="#722283"/><stop offset="1" stop-color="#c7017f"/></linearGradient><linearGradient id="f" x1="107.31" y1="92.37" x2="107.31" y2="47.34" xlink:href="#a"/><linearGradient id="g" x1="135.92" y1="92.37" x2="135.92" y2="47.62" xlink:href="#a"/><linearGradient id="h" x1="164.75" y1="92.37" x2="164.75" y2="47.34" xlink:href="#a"/><linearGradient id="i" x1="213.04" y1="92.98" x2="213.04" y2="46.82" xlink:href="#a"/><linearGradient id="j" x1="255.91" y1="92.37" x2="255.91" y2="47.43" xlink:href="#a"/><linearGradient id="k" x1="303.94" y1="92.4" x2="303.94" y2="47.43" xlink:href="#a"/><linearGradient id="l" x1="346.51" y1="92.37" x2="346.51" y2="47.46" xlink:href="#a"/><linearGradient id="d" x1="221.98" y1="123.29" x2="221.98" y2="12.69" gradientUnits="userSpaceOnUse"><stop offset="0" stop-color="#831f82"/><stop offset="1" stop-color="#c7017f"/></linearGradient><linearGradient id="b" x1="72.31" y1="88.86" x2="72.31" y2="43.89" gradientUnits="userSpaceOnUse"><stop offset="0" stop-color="#f7a600"/><stop offset="1" stop-color="#ffe500"/></linearGradient><linearGradient id="n" x1="107.31" y1="88.83" x2="107.31" y2="43.8" xlink:href="#b"/><linearGradient id="o" x1="135.92" y1="88.83" x2="135.92" y2="44.07" xlink:href="#b"/><linearGradient id="p" x1="164.75" y1="88.83" x2="164.75" y2="43.8" xlink:href="#b"/><linearGradient id="q" x1="213.04" y1="89.44" x2="213.04" y2="43.28" xlink:href="#b"/><linearGradient id="r" x1="255.91" y1="88.83" x2="255.91" y2="43.89" xlink:href="#b"/><linearGradient id="s" x1="303.94" y1="88.86" x2="303.94" y2="43.89" xlink:href="#b"/><linearGradient id="t" x1="346.51" y1="88.83" x2="346.51" y2="43.92" xlink:href="#b"/><linearGradient id="u" x1="380.32" y1="89.38" x2="380.32" y2="43" xlink:href="#b"/><linearGradient id="v" x1="221.98" y1="67.99" x2="221.98" y2="27.27" gradientUnits="userSpaceOnUse"><stop offset="0" stop-color="#fff" stop-opacity=".5"/><stop offset=".03" stop-color="#fff" stop-opacity=".46"/><stop offset=".16" stop-color="#fff" stop-opacity=".32"/><stop offset=".3" stop-color="#fff" stop-opacity=".21"/><stop offset=".45" stop-color="#fff" stop-opacity=".11"/><stop offset=".6" stop-color="#fff" stop-opacity=".05"/><stop offset=".77" stop-color="#fff" stop-opacity=".01"/><stop offset="1" stop-color="#fff" stop-opacity="0"/></linearGradient></defs><rect x="8" y="8" width="413.51" height="94.59" rx="47.3" style="fill:url(#c)"/><path d="M381.44 20.69A47.3 47.3 0 0 1 428.73 68a47.3 47.3 0 0 1-47.29 47.3H62.52A47.3 47.3 0 0 1 15.22 68a47.3 47.3 0 0 1 47.3-47.3h318.92m0-8H62.52a55.3 55.3 0 0 0 0 110.6h318.92a55.3 55.3 0 0 0 0-110.6z" transform="translate(-7.22 -12.69)" style="fill:url(#d)"/><rect x="15.85" y="14.58" width="397.8" height="81.44" rx="40.72" style="fill:url(#e)"/><path d="M76 91.48h-8.84L63.63 76.4q-2.05-8.8-3.19-16.4h-.15q-.12 2.91-.74 16.83l-.67 15.57H48.49l3-45H66l3 12.75q2.36 10.16 3.34 16.34h.18q1.38-6.76 3.68-16.4l3.22-12.69h14.31l2.39 45H85.18l-.61-15.54q-.25-9.14-.25-16.83h-.21Q82.82 66.5 80 76.31z" transform="translate(-7.22 -12.69)" style="fill:url(#a)"/><path d="M101.82 47.34h11l.33.34V92l-.33.34h-11l-.33-.34V47.68z" transform="translate(-7.22 -12.69)" style="fill:url(#f)"/><path d="M128.58 92.37h-10.36V47.62h12.69l6.9 14.47A116.7 116.7 0 0 1 144 76.64h.21q-.92-9.23-.92-19.46v-9.56h10.36v44.75h-11.7l-7.09-14.93a157.23 157.23 0 0 1-6.52-15.14h-.19q.47 9.38.46 20z" transform="translate(-7.22 -12.69)" style="fill:url(#g)"/><path d="M159.26 47.34h11l.33.34V92l-.33.34h-11l-.33-.34V47.68z" transform="translate(-7.22 -12.69)" style="fill:url(#h)"/><path d="M218.11 46.82h1.57a27.17 27.17 0 0 1 10.85 1.93l-2.12 9.44h-.34a27 27 0 0 0-8.91-1.59q-8.22 0-11.38 6.83a15.68 15.68 0 0 0-1.22 5.95v1.41q0 9 7.17 12a10.07 10.07 0 0 0 4 .7h.19c1.86 0 2.79-.17 2.79-.52v-7.83h-4.88l-.36-.33v-8.59l.36-.33h15.55l.36.33v24.31q-1.22 1.41-12.26 2.45h-3.12q-16.62 0-21.15-14.86a25.22 25.22 0 0 1-.89-6.81v-1.59q0-15.36 14.49-21.34a28.62 28.62 0 0 1 9.3-1.56z" transform="translate(-7.22 -12.69)" style="fill:url(#i)"/><path d="M263.2 47.43q.85 1.35 2.76 9.9L269.45 70l-.18.16H258.7c-.29 0-.93-2.83-1.94-8.49q-1.06-4.81-1.38-5l-3.46 17.16h18.21c.35 0 1.15 2.84 2.42 8.53l2.79 9.87-.18.18h-11.81q-.39 0-2.57-9.9h-10.42q-1.85 9.9-2.42 9.9h-11.13l-.34-.34 12-44.6z" transform="translate(-7.22 -12.69)" style="fill:url(#j)"/><path d="M307.61 91.48h-8.82l-3.53-15.08q-2.05-8.8-3.19-16.4h-.15q-.12 2.91-.73 16.83l-.68 15.54h-10.39l3-45h14.53l3 12.75q2.36 10.16 3.34 16.34h.18q1.38-6.76 3.68-16.4L311 47.43h14.34l2.39 45h-10.92l-.61-15.54q-.26-9.17-.2-16.89h-.21q-1.29 6.47-4.08 16.28z" transform="translate(-7.22 -12.69)" style="fill:url(#k)"/><path d="M333.15 47.46H359l.33.34v8.86L359 57h-14.57v7.44h13.85l.37.37v8.83l-.37.34h-13.85v8.86h15.42l.36.33V92l-.36.34h-26.7l-.34-.34V47.8z" transform="translate(-7.22 -12.69)" style="fill:url(#l)"/><path d="M377.71 83.33a8.13 8.13 0 0 0 4.54-1 3.19 3.19 0 0 0 1.47-2.78 3.63 3.63 0 0 0-1.56-2.92A23.92 23.92 0 0 0 377 74q-11.37-4.87-11.37-13.34a12.66 12.66 0 0 1 4.47-10q4.72-4.08 12.81-4.08a26 26 0 0 1 10.79 2.06l-2.2 9.47a21.06 21.06 0 0 0-8.65-2 7.48 7.48 0 0 0-4.14 1 2.88 2.88 0 0 0-1.44 2.51 3.34 3.34 0 0 0 1.69 2.73 38.93 38.93 0 0 0 5.82 2.91q10.74 4.35 10.73 13.4a12.54 12.54 0 0 1-4.6 10.11q-4.91 4.17-13.64 4.17a26.72 26.72 0 0 1-12-2.42l2-9.66a22.71 22.71 0 0 0 10.44 2.47z" transform="translate(-7.22 -12.69)" style="fill:url(#m)"/><path d="M76 87.94h-8.84l-3.53-15.08q-2.06-8.81-3.19-16.37h-.15q-.12 2.91-.73 16.83l-.68 15.54H48.49l3-45H66l3 12.75Q71.33 66.79 72.31 73h.18q1.38-6.78 3.68-16.4l3.22-12.69h14.34l2.39 45H85.18l-.61-15.54q-.25-9.13-.25-16.83h-.21Q82.82 63 80 72.76z" transform="translate(-7.22 -12.69)" style="fill:url(#b)"/><path d="M101.82 43.8h11l.33.34v44.35l-.33.34h-11l-.33-.34V44.14z" transform="translate(-7.22 -12.69)" style="fill:url(#n)"/><path d="M128.58 88.83h-10.36V44.07h12.69l6.9 14.47A117.5 117.5 0 0 1 144 73.1h.21q-.92-9.22-.92-19.46v-9.57h10.36v44.76h-11.7l-7.11-14.93a155 155 0 0 1-6.53-15.14h-.19q.47 9.38.46 20z" transform="translate(-7.22 -12.69)" style="fill:url(#o)"/><path d="M159.26 43.8h11l.33.34v44.35l-.33.34h-11l-.33-.34V44.14z" transform="translate(-7.22 -12.69)" style="fill:url(#p)"/><path d="M218.11 43.28h1.57a27.17 27.17 0 0 1 10.85 1.93l-2.12 9.44h-.34a27 27 0 0 0-8.91-1.6q-8.22 0-11.38 6.84a15.6 15.6 0 0 0-1.22 6v1.41q0 9 7.17 12a10.08 10.08 0 0 0 4 .71h.18c1.86 0 2.79-.18 2.79-.52V71.6h-4.88l-.36-.34v-8.58l.36-.34h15.55l.36.34V87q-1.22 1.41-12.26 2.45h-3.12q-16.62 0-21.15-14.87a25.1 25.1 0 0 1-.89-6.8v-1.6q0-15.35 14.5-21.33a28.52 28.52 0 0 1 9.3-1.57z" transform="translate(-7.22 -12.69)" style="fill:url(#q)"/><path d="M263.2 43.89q.85 1.35 2.76 9.9l3.49 12.66-.18.15H258.7c-.29 0-.93-2.83-1.94-8.49q-1.06-4.81-1.38-5l-3.46 17.16h18.21c.35 0 1.15 2.84 2.42 8.52l2.79 9.87-.18.19h-11.81q-.39 0-2.57-9.9h-10.42q-1.85 9.9-2.42 9.9h-11.13l-.34-.34 12-44.6z" transform="translate(-7.22 -12.69)" style="fill:url(#r)"/><path d="M307.61 87.94h-8.82l-3.53-15.08q-2.06-8.81-3.19-16.37h-.15q-.12 2.91-.73 16.83l-.68 15.54h-10.39l3-45h14.53l3 12.75Q303 66.79 303.94 73h.18q1.38-6.78 3.68-16.4l3.2-12.71h14.34l2.39 45h-10.92l-.61-15.54q-.26-9.13-.25-16.83h-.21q-1.29 6.46-4.08 16.27z" transform="translate(-7.22 -12.69)" style="fill:url(#s)"/><path d="M333.15 43.92H359l.33.34v8.86l-.33.33h-14.57v7.45h13.85l.37.37v8.83l-.37.33h-13.85v8.86h15.42l.36.34v8.86l-.36.34h-26.7l-.34-.34V44.26z" transform="translate(-7.22 -12.69)" style="fill:url(#t)"/><path d="M377.71 79.78a8.13 8.13 0 0 0 4.54-1 3.2 3.2 0 0 0 1.47-2.78 3.62 3.62 0 0 0-1.56-3 23.84 23.84 0 0 0-5.16-2.6q-11.37-4.86-11.37-13.33a12.63 12.63 0 0 1 4.47-10Q374.78 43 382.86 43a26.13 26.13 0 0 1 10.79 2l-2.2 9.48a21.08 21.08 0 0 0-8.65-2 7.48 7.48 0 0 0-4.14 1 2.88 2.88 0 0 0-1.44 2.51 3.34 3.34 0 0 0 1.69 2.73 38.93 38.93 0 0 0 5.82 2.91q10.74 4.37 10.73 13.46a12.58 12.58 0 0 1-4.6 10.12q-4.91 4.17-13.64 4.17a26.72 26.72 0 0 1-12-2.42l2-9.66a22.7 22.7 0 0 0 10.49 2.48z" transform="translate(-7.22 -12.69)" style="fill:url(#u)"/><path d="M380.16 27.27H63.79A40.72 40.72 0 0 0 23.07 68h397.81a40.72 40.72 0 0 0-40.72-40.73z" transform="translate(-7.22 -12.69)" style="fill:url(#v)"/></svg>