<?xml version="1.0" encoding="utf-8"?>
<!-- Generator: Adobe Illustrator 24.1.3, SVG Export Plug-In . SVG Version: 6.00 Build 0)  -->
<svg version="1.1" id="Calque_1" xmlns="http://www.w3.org/2000/svg" xmlns:xlink="http://www.w3.org/1999/xlink" x="0px" y="0px"
	 viewBox="0 0 56.69 56.69" style="enable-background:new 0 0 56.69 56.69;" xml:space="preserve">
<style type="text/css">
	.st0{fill:#626A6F;}
	.st1{fill:#FFFFFF;}
</style>
<g id="XMLID_1693_">
	<path id="XMLID_1695_" class="st0" d="M28.34,56.58L28.34,56.58c-15.61,0-28.26-12.65-28.26-28.26v0
		c0-15.61,12.65-28.26,28.26-28.26h0c15.61,0,28.26,12.65,28.26,28.26v0C56.6,43.93,43.95,56.58,28.34,56.58z"/>
	<path id="XMLID_1694_" class="st1" d="M24.03,45.41h6.88V28.18h4.8l0.51-5.77h-5.31c0,0,0-2.15,0-3.28c0-1.36,0.27-1.9,1.59-1.9
		c1.06,0,3.72,0,3.72,0v-5.99c0,0-3.92,0-4.76,0c-5.12,0-7.43,2.25-7.43,6.57c0,3.76,0,4.6,0,4.6h-3.58v5.84h3.58V45.41z"/>
</g>
</svg>
