<?xml version="1.0" encoding="utf-8"?>
<!-- Generator: Adobe Illustrator 24.1.3, SVG Export Plug-In . SVG Version: 6.00 Build 0)  -->
<svg version="1.1" id="Calque_1" xmlns="http://www.w3.org/2000/svg" xmlns:xlink="http://www.w3.org/1999/xlink" x="0px" y="0px"
	 viewBox="0 0 56.69 56.69" style="enable-background:new 0 0 56.69 56.69;" xml:space="preserve">
<style type="text/css">
	.st0{fill:#626A6F;}
	.st1{fill:#FFFFFF;}
</style>
<g id="XMLID_1707_">
	<path id="XMLID_1713_" class="st0" d="M28.3,56.49L28.3,56.49c-15.55,0-28.16-12.61-28.16-28.16v0c0-15.55,12.61-28.16,28.16-28.16
		l0,0c15.55,0,28.16,12.61,28.16,28.16v0C56.46,43.88,43.85,56.49,28.3,56.49z"/>
	<g id="XMLID_1708_">
		<g id="XMLID_1710_">
			<rect id="XMLID_1712_" x="15.54" y="22.06" class="st1" width="5.83" height="18.83"/>
			<path id="XMLID_1711_" class="st1" d="M18.42,19.59c1.9,0,3.45-1.56,3.45-3.47s-1.54-3.47-3.45-3.47c-1.9,0-3.45,1.56-3.45,3.47
				S16.52,19.59,18.42,19.59z"/>
		</g>
		<path id="XMLID_1709_" class="st1" d="M30.68,31c0-2.65,1.22-4.22,3.55-4.22c2.14,0,3.17,1.51,3.17,4.22c0,2.71,0,9.88,0,9.88h5.8
			c0,0,0-6.88,0-11.92c0-5.04-2.86-7.48-6.85-7.48c-3.99,0-5.67,3.11-5.67,3.11v-2.54h-5.59v18.83h5.59
			C30.68,40.88,30.68,33.9,30.68,31z"/>
	</g>
</g>
</svg>
