<?xml version="1.0" encoding="utf-8"?>
<!-- Generator: Adobe Illustrator 24.1.3, SVG Export Plug-In . SVG Version: 6.00 Build 0)  -->
<svg version="1.1" id="Calque_1" xmlns="http://www.w3.org/2000/svg" xmlns:xlink="http://www.w3.org/1999/xlink" x="0px" y="0px"
	 viewBox="0 0 56.69 56.69" style="enable-background:new 0 0 56.69 56.69;" xml:space="preserve">
<style type="text/css">
	.st0{fill:#626A6F;}
	.st1{fill:#FFFFFF;}
</style>
<g id="XMLID_1683_">
	<path id="XMLID_1692_" class="st0" d="M28.32,56.43L28.32,56.43c-15.54,0-28.14-12.6-28.14-28.14v0c0-15.54,12.6-28.14,28.14-28.14
		l0,0c15.54,0,28.14,12.6,28.14,28.14v0C56.46,43.83,43.86,56.43,28.32,56.43z"/>
	<g id="XMLID_1684_">
		<path id="XMLID_1689_" class="st1" d="M28.32,15.64c4.12,0,4.61,0.02,6.24,0.09c1.5,0.07,2.32,0.32,2.87,0.53
			c0.72,0.28,1.23,0.61,1.77,1.15c0.54,0.54,0.87,1.05,1.15,1.77c0.21,0.54,0.46,1.36,0.53,2.87c0.07,1.63,0.09,2.11,0.09,6.24
			s-0.02,4.61-0.09,6.24c-0.07,1.5-0.32,2.32-0.53,2.87c-0.28,0.72-0.61,1.23-1.15,1.77c-0.54,0.54-1.05,0.87-1.77,1.15
			c-0.54,0.21-1.36,0.46-2.87,0.53c-1.63,0.07-2.11,0.09-6.24,0.09c-4.12,0-4.61-0.02-6.24-0.09c-1.5-0.07-2.32-0.32-2.87-0.53
			c-0.72-0.28-1.23-0.61-1.77-1.15c-0.54-0.54-0.87-1.05-1.15-1.77c-0.21-0.54-0.46-1.36-0.53-2.87c-0.07-1.63-0.09-2.11-0.09-6.24
			s0.02-4.61,0.09-6.24c0.07-1.5,0.32-2.32,0.53-2.87c0.28-0.72,0.61-1.23,1.15-1.77c0.54-0.54,1.05-0.87,1.77-1.15
			c0.54-0.21,1.36-0.46,2.87-0.53C23.71,15.66,24.2,15.64,28.32,15.64 M28.32,12.86c-4.19,0-4.72,0.02-6.36,0.09
			c-1.64,0.07-2.76,0.34-3.75,0.72c-1.01,0.39-1.88,0.92-2.73,1.78c-0.86,0.86-1.39,1.72-1.78,2.73c-0.38,0.98-0.64,2.1-0.72,3.75
			c-0.08,1.65-0.09,2.17-0.09,6.36c0,4.19,0.02,4.72,0.09,6.36c0.07,1.64,0.34,2.76,0.72,3.75c0.39,1.01,0.92,1.88,1.78,2.73
			c0.86,0.86,1.72,1.39,2.73,1.78c0.98,0.38,2.1,0.64,3.75,0.72c1.65,0.07,2.17,0.09,6.36,0.09c4.19,0,4.72-0.02,6.36-0.09
			c1.64-0.07,2.76-0.34,3.75-0.72c1.01-0.39,1.88-0.92,2.73-1.78c0.86-0.86,1.39-1.72,1.78-2.73c0.38-0.98,0.64-2.1,0.72-3.75
			c0.07-1.65,0.09-2.17,0.09-6.36c0-4.19-0.02-4.72-0.09-6.36c-0.07-1.64-0.34-2.76-0.72-3.75c-0.39-1.01-0.92-1.88-1.78-2.73
			c-0.86-0.86-1.72-1.39-2.73-1.78c-0.98-0.38-2.1-0.64-3.75-0.72C33.03,12.88,32.51,12.86,28.32,12.86"/>
		<path id="XMLID_1686_" class="st1" d="M28.32,20.37c-4.38,0-7.92,3.55-7.92,7.92c0,4.38,3.55,7.92,7.92,7.92
			c4.38,0,7.92-3.55,7.92-7.92C36.24,23.91,32.69,20.37,28.32,20.37 M28.32,33.43c-2.84,0-5.14-2.3-5.14-5.14
			c0-2.84,2.3-5.14,5.14-5.14s5.14,2.3,5.14,5.14C33.46,31.13,31.16,33.43,28.32,33.43"/>
		<path id="XMLID_1685_" class="st1" d="M38.41,20.05c0,1.02-0.83,1.85-1.85,1.85c-1.02,0-1.85-0.83-1.85-1.85
			c0-1.02,0.83-1.85,1.85-1.85C37.58,18.2,38.41,19.03,38.41,20.05"/>
	</g>
</g>
</svg>
