<?xml version="1.0" encoding="utf-8"?>
<!-- Generator: Adobe Illustrator 24.1.3, SVG Export Plug-In . SVG Version: 6.00 Build 0)  -->
<svg version="1.1" id="Calque_1" xmlns="http://www.w3.org/2000/svg" xmlns:xlink="http://www.w3.org/1999/xlink" x="0px" y="0px"
	 viewBox="0 0 56.69 56.69" style="enable-background:new 0 0 56.69 56.69;" xml:space="preserve">
<style type="text/css">
	.st0{fill:#626A6F;}
	.st1{fill:#FFFFFF;}
</style>
<g id="XMLID_1728_">
	<path id="XMLID_1858_" class="st0" d="M28.3,56.5L28.3,56.5C12.75,56.5,0.15,43.9,0.15,28.35v0C0.15,12.8,12.75,0.19,28.3,0.19h0
		c15.55,0,28.16,12.61,28.16,28.16v0C56.46,43.9,43.85,56.5,28.3,56.5z"/>
	<g id="XMLID_1729_">
		<path id="XMLID_1846_" class="st1" d="M45.96,19.42c-0.42-1.6-1.67-2.85-3.26-3.28c-2.87-0.78-14.4-0.78-14.4-0.78
			s-11.52,0-14.4,0.78c-1.59,0.43-2.83,1.68-3.26,3.28c-0.77,2.89-0.77,8.93-0.77,8.93s0,6.04,0.77,8.93
			c0.42,1.6,1.67,2.85,3.26,3.28c2.87,0.78,14.4,0.78,14.4,0.78s11.52,0,14.4-0.78c1.59-0.43,2.83-1.68,3.26-3.28
			c0.77-2.89,0.77-8.93,0.77-8.93S46.73,22.31,45.96,19.42z"/>
		<polygon id="XMLID_1730_" class="st0" points="24.54,33.83 24.54,22.87 34.17,28.35 		"/>
	</g>
</g>
</svg>
