<svg xmlns="http://www.w3.org/2000/svg" viewBox="0 0 595.28 595.28" style="enable-background:new 0 0 595.28 595.28" xml:space="preserve"><radialGradient id="a" cx="297.767" cy="298.204" r="211.612" gradientTransform="matrix(1 0 0 -1 0 595.89)" gradientUnits="userSpaceOnUse"><stop offset="0" style="stop-color:#fff"/><stop offset=".409" style="stop-color:#fcfcfc"/><stop offset=".769" style="stop-color:#f1f1f1"/><stop offset="1" style="stop-color:#e6e6e6"/></radialGradient><path d="M509.31 299.2c.21 107.95-85.54 210.59-211.65 210.16-128.57-.44-212.58-105-211.43-213.78C87.44 180.1 182.45 85.95 298.09 86.01c116.92.06 211.99 96.01 211.22 213.19zm-48.65-1.72c-.08-89.22-72.92-162.18-162.12-162.38-90.41-.2-163.42 72.72-163.36 163.18.05 89.59 73.66 162.93 163.11 162.52 89.83-.4 162.44-73.44 162.37-163.32zM294.12 93.14c-12.19 1.27-23.49 2.45-35.52 3.7 2.65 12.2 4.94 22.76 7.31 33.71 9.83-1.07 18.77-2.04 28.21-3.07V93.14zm-27.89 372.15c-2.45 11.55-4.68 22.09-7.19 33.93 12.38 1.16 23.37 2.18 34.73 3.25v-34.08c-9.29-1.04-17.71-1.99-27.54-3.1zM102.02 358.76c12.2-4.04 22.69-7.5 33.11-10.95-2.26-9.9-4.21-18.38-6.3-27.56-11.47 1.25-22.17 2.41-34.11 3.71 2.48 11.81 4.7 22.38 7.3 34.8zm299.3-196.23c7.37 6.69 14.11 12.81 21.22 19.28 8.34-7.54 16.44-14.87 25.62-23.17-9.05-8.21-17.49-15.87-26.48-24.03-7.14 9.81-13.39 18.38-20.36 27.92zm76.15 36.78c-10.7 6.21-20.08 11.64-29.88 17.32 4.04 9 7.73 17.21 11.69 26.05 11.11-3.65 21.38-7.03 32.79-10.78-5.04-11.24-9.59-21.4-14.6-32.59zm-325.7 11.06c5.84-8.22 11.05-15.57 16.55-23.31-8.7-7.81-16.8-15.07-25.71-23.07-7.17 10.11-13.77 19.42-20.68 29.16 10.62 6.12 19.78 11.41 29.84 17.22zm48.49-51.99c8.81-5.22 16.6-9.84 24.72-14.65-4.81-10.61-9.27-20.46-14.27-31.49-10.78 6.44-20.54 12.26-30.67 18.31 7.33 10.09 13.56 18.67 20.22 27.83zm221.29 256.61c-7.35 6.67-14.04 12.75-21.06 19.12 6.95 9.41 13.37 18.11 20.45 27.71 9.15-8.26 17.42-15.73 26.24-23.69-9.17-8.27-17.22-15.54-25.63-23.14zm-57.36-274.08c4.59-10.25 9.04-20.17 14.09-31.44-11.37-3.77-22.16-7.36-34.07-11.31-2.56 12.34-4.81 23.16-7.05 33.95 9.74 3.17 18.05 5.88 27.03 8.8zM101.66 238.9c-2.48 11.83-4.77 22.72-7.31 34.81 12.06 1.31 22.81 2.48 34.3 3.74 1.98-9.53 3.81-18.38 5.78-27.85-10.92-3.57-21.23-6.93-32.77-10.7zm99.49 199.15c-6.88 9.54-13.23 18.34-20.28 28.13l30.78 17.51c5-11.28 9.41-21.22 13.96-31.48-8.32-4.81-15.91-9.21-24.46-14.16zm-48.61-51.22c-10.26 5.99-19.63 11.47-29.97 17.51 7.58 10.12 14.28 19.07 21.29 28.42 9.29-8.37 17.41-15.69 25.57-23.05-5.79-7.85-11.04-14.97-16.89-22.88zm191.37 111.11c12.13-4.22 22.66-7.87 33.6-11.68-5.35-11.77-9.7-21.34-14.2-31.23-9.27 3.14-17.77 6.02-26.61 9.01 2.4 11.26 4.58 21.54 7.21 33.9zm132.77-99.98c4.88-10.82 9.54-21.16 14.61-32.4-11.88-3.88-22.13-7.22-32.77-10.69-4 8.78-7.74 16.98-11.76 25.81 9.88 5.69 19.27 11.12 29.92 17.28zm-8.38-113.47v28.73c11.23 1.09 21.89 2.12 33.25 3.22V281.4c-11.31 1.06-21.76 2.03-33.25 3.09z" style="fill:url(#a)"/><radialGradient id="b" cx="297.823" cy="298.026" r="88.194" gradientTransform="matrix(1 0 0 -1 0 595.89)" gradientUnits="userSpaceOnUse"><stop offset="0" style="stop-color:#fff"/><stop offset=".409" style="stop-color:#fcfcfc"/><stop offset=".769" style="stop-color:#f1f1f1"/><stop offset="1" style="stop-color:#e6e6e6"/></radialGradient><path d="M297.89 275.93c14.98-12.48 29.22-24 42.98-36.08 2.98-2.61 5.35-7 6.04-10.92 2.16-12.32 8.55-19.96 21.34-19.18 10.23.62 17.19 6.96 17.71 17.66.62 12.82-6.26 19.66-19.05 21.07-3.17.35-7.16 1.52-9.08 3.76-12.87 15.06-25.28 30.51-37.75 45.72 12.42 15.08 24.45 30.21 37.18 44.71 2.48 2.82 7.59 3.75 11.68 4.67 10.88 2.44 17.42 8.65 17.09 20.02-.31 10.46-6.13 17.29-16.74 18.5-11.24 1.28-17.58-4.6-21.8-14.97-2.97-7.28-7.57-14.51-13.2-19.96C323 340 310.51 330.3 298.26 319.88c-15.38 12.58-30.92 24.85-45.79 37.87-2.79 2.44-3.2 7.86-4.2 12.03-2.63 10.98-9.94 18.61-20.48 15.55-7.16-2.08-15.68-10.13-17.58-17.14-2.73-10.1 4.6-17.48 15.57-20.77 6.08-1.82 12.45-5.41 16.72-10.02 11.68-12.61 22.31-26.19 33.34-39.38-12.54-15.3-24.52-30.44-37.22-44.97-2.49-2.84-7.6-3.96-11.71-4.7-11.3-2.05-17.53-9.03-17.3-19.86.23-10.99 7.21-18.28 18.39-18.76 10.96-.47 17.55 5.61 20.54 16.62 1.55 5.68 4.87 11.72 9.16 15.66 12.72 11.65 26.31 22.33 40.19 33.92z" style="fill:url(#b)"/><g><radialGradient id="c" cx="297.64" cy="543.64" r="260.25" gradientTransform="rotate(45.001 594.596 420.635)" gradientUnits="userSpaceOnUse"><stop offset="0" style="stop-color:#fff"/><stop offset=".409" style="stop-color:#fcfcfc"/><stop offset=".769" style="stop-color:#f1f1f1"/><stop offset="1" style="stop-color:#e6e6e6"/></radialGradient><path d="M205.33 70.35c29.38-11.91 60.44-17.95 92.3-17.95s62.91 6.05 92.3 17.95c23.14 9.38 44.47 22.13 63.67 38l10.64-10.64c-98.49-82.25-243.47-80.36-339.81 5.7l10.62 10.62c20.87-18.54 44.45-33.2 70.28-43.68z" style="fill:url(#c)"/><radialGradient id="d" cx="297.64" cy="543.64" r="260.25" gradientTransform="rotate(45.001 594.596 420.635)" gradientUnits="userSpaceOnUse"><stop offset="0" style="stop-color:#fff"/><stop offset=".409" style="stop-color:#fcfcfc"/><stop offset=".769" style="stop-color:#f1f1f1"/><stop offset="1" style="stop-color:#e6e6e6"/></radialGradient><path d="M524.93 205.35c11.91 29.38 17.95 60.44 17.95 92.3s-6.05 62.91-17.95 92.3c-10.48 25.84-25.14 49.41-43.68 70.28l10.62 10.62c86.05-96.34 87.95-241.32 5.7-339.81l-10.64 10.64a242.375 242.375 0 0 1 38 63.67z" style="fill:url(#d)"/><radialGradient id="e" cx="297.64" cy="543.64" r="260.25" gradientTransform="rotate(45.001 594.596 420.635)" gradientUnits="userSpaceOnUse"><stop offset="0" style="stop-color:#fff"/><stop offset=".409" style="stop-color:#fcfcfc"/><stop offset=".769" style="stop-color:#f1f1f1"/><stop offset="1" style="stop-color:#e6e6e6"/></radialGradient><path d="M70.33 389.95c-11.91-29.38-17.95-60.44-17.95-92.3s6.05-62.91 17.95-92.3c8.29-20.43 19.19-39.44 32.56-56.82l-10.68-10.68c-74.86 95.99-73.02 232.38 5.5 326.4l10.63-10.63a242.841 242.841 0 0 1-38.01-63.67z" style="fill:url(#e)"/><radialGradient id="f" cx="297.64" cy="543.64" r="260.25" gradientTransform="rotate(45.001 594.596 420.635)" gradientUnits="userSpaceOnUse"><stop offset="0" style="stop-color:#fff"/><stop offset=".409" style="stop-color:#fcfcfc"/><stop offset=".769" style="stop-color:#f1f1f1"/><stop offset="1" style="stop-color:#e6e6e6"/></radialGradient><path d="M389.93 524.95c-29.38 11.91-60.44 17.95-92.3 17.95s-62.91-6.05-92.3-17.95a243.08 243.08 0 0 1-63.67-38l-10.63 10.63c94.02 78.52 230.4 80.37 326.4 5.5l-10.68-10.68a242.538 242.538 0 0 1-56.82 32.55z" style="fill:url(#f)"/></g></svg>