<svg xmlns="http://www.w3.org/2000/svg" viewBox="0 0 595.28 595.28" style="enable-background:new 0 0 595.28 595.28" xml:space="preserve"><radialGradient id="a" cx="430.637" cy="53.5" r="54.028" gradientTransform="matrix(1 0 0 -1 0 349.89)" gradientUnits="userSpaceOnUse"><stop offset="0" style="stop-color:#fff"/><stop offset=".409" style="stop-color:#fcfcfc"/><stop offset=".769" style="stop-color:#f1f1f1"/><stop offset="1" style="stop-color:#e6e6e6"/></radialGradient><path d="M457.56 296.08c0 22.57.03 45.14-.07 67.69 0 1.38-.67 3.29-1.7 3.97-.75.49-2.85-.33-3.87-1.15-15.37-12.38-30.67-24.85-46.01-37.27-1.48-1.2-2.21-2.54-2.21-4.54.07-18.92-.02-37.83.13-56.75.02-1.52.97-3.49 2.15-4.46 15.23-12.56 30.55-25 45.93-37.39 1.02-.82 3.08-1.64 3.85-1.16 1.02.64 1.7 2.54 1.7 3.92.1 22.37.07 44.76.07 67.14h.03z" style="fill:url(#a)"/><radialGradient id="b" cx="272.118" cy="53.48" r="101.695" gradientTransform="matrix(1 0 0 -1 0 349.89)" gradientUnits="userSpaceOnUse"><stop offset="0" style="stop-color:#fff"/><stop offset=".409" style="stop-color:#fcfcfc"/><stop offset=".769" style="stop-color:#f1f1f1"/><stop offset="1" style="stop-color:#e6e6e6"/></radialGradient><path d="M360.32 216.29h-73.68c-30.34 0-60.68-.05-91.04.02-23.44.07-42.83 19.37-42.88 42.71-.03 16.31-.03 40.03-.03 61.88v14.72c0 22.6 18.33 40.93 40.93 40.93 44.08 0 113.47 0 155.11-.02 7.43 0 14.8-1.88 21.14-5.74 13.74-8.34 21.31-20.49 21.67-36.36v-86.46c0-17.35-13.93-31.42-31.22-31.68zM221.63 330.26c-.3 2-1.38 3.07-3.62 3.05-10.21-.07-20.42.02-30.62-.03-3.18-.02-4.9-1.67-4.9-4.87-.03-21.82 0-43.65-.05-65.47 0-2.05.84-3.2 2.8-3.52 1.02-.16 2.03-.34 3.07-.34 4.93-.03 5.87.92 5.87 5.82v58.11h4.49c6.38 0 12.74.07 19.11-.03 2.66-.05 3.79 1.26 3.98 3.64.09 1.2.05 2.44-.13 3.64zm20.28-33.88c0 10.75.02 21.5-.02 32.26 0 4.2-.62 4.79-4.87 4.98-.93.05-1.87.05-2.8-.05-3.28-.33-4.03-1.16-4.03-4.43v-65.09c0-3.67.62-4.39 4.23-4.85.92-.11 1.87-.13 2.8-.07 3.93.28 4.67 1.1 4.67 4.98 0 10.75.02 21.5.02 32.27zm70.66-29.56c-7.64 20.88-14.87 41.93-22.14 62.94-.87 2.52-2.38 3.57-4.87 3.82-8.06.77-9.18.21-11.87-7.38-7.31-20.6-14.56-41.24-21.8-61.88-1.23-3.51-.31-4.92 3.36-5.2.93-.07 1.87-.07 2.8-.05 4.11.08 4.74.59 6.05 4.43 5.95 17.52 11.93 35.04 17.93 52.55.26.75.67 1.46 1.26 2.72 2.08-6.23 3.97-11.87 5.84-17.54 4.33-13.03 8.59-26.09 13.05-39.09.39-1.16 1.97-1.95 3.03-2.87.18-.15.54-.13.82-.15 7.79-.36 9.23.35 6.54 7.7zm48.65 66.45c-10.77.03-21.55.05-32.32.02-3.93-.02-5.47-1.54-5.47-5.44-.02-20.98-.02-41.96.02-62.94 0-3.88 1.52-5.38 5.51-5.39 10.59-.03 21.18-.03 31.75-.02 3.31 0 4.41 1.31 4.39 5.03-.02 3.72-1.03 4.84-4.49 4.84-7.59.02-15.18.07-22.77-.03-2.03-.03-2.84.51-2.79 2.67.13 5.87.05 11.74.05 17.88 7.41 0 14.24-.1 21.06.08 1.48.03 4 .85 4.18 1.7.48 2.25.07 4.72-.34 7.05-.08.44-1.77.84-2.7.84-6.46.08-12.92.13-19.37 0-2.21-.05-2.93.61-2.88 2.84.13 5.52.02 11.05.03 16.57.02 4.31.05 4.29 4.21 4.29 7.31 0 14.62-.02 21.91.03 3.39.03 4.18 1.07 4.16 5.11.01 3.86-.81 4.86-4.14 4.87z" style="fill:url(#b)"/><radialGradient id="c" cx="272.118" cy="56.207" r="101.427" gradientTransform="matrix(1 0 0 -1.0086 0 353.1)" gradientUnits="userSpaceOnUse"><stop offset="0" style="stop-color:#fff"/><stop offset=".409" style="stop-color:#fcfcfc"/><stop offset=".769" style="stop-color:#f1f1f1"/><stop offset="1" style="stop-color:#e6e6e6"/></radialGradient><path d="M360.32 216.29h-73.68c-30.34 0-60.68-.05-91.04.02-23.44.07-42.83 19.37-42.88 42.71-.03 16.31-.03 40.03-.03 61.88v14.72c0 22.6 18.33 40.93 40.93 40.93 44.08 0 113.47 0 155.11-.02 7.43 0 14.8-1.88 21.14-5.74 13.74-8.34 21.31-20.49 21.67-36.36v-86.46c0-17.35-13.93-31.42-31.22-31.68zM221.63 330.26c-.3 2-1.38 3.07-3.62 3.05-10.21-.07-20.42.02-30.62-.03-3.18-.02-4.9-1.67-4.9-4.87-.03-21.82 0-43.65-.05-65.47 0-2.05.84-3.2 2.8-3.52 1.02-.16 2.03-.34 3.07-.34 4.93-.03 5.87.92 5.87 5.82v58.11h4.49c6.38 0 12.74.07 19.11-.03 2.66-.05 3.79 1.26 3.98 3.64.09 1.2.05 2.44-.13 3.64zm20.28-33.88c0 10.75.02 21.5-.02 32.26 0 4.2-.62 4.79-4.87 4.98-.93.05-1.87.05-2.8-.05-3.28-.33-4.03-1.16-4.03-4.43v-65.09c0-3.67.62-4.39 4.23-4.85.92-.11 1.87-.13 2.8-.07 3.93.28 4.67 1.1 4.67 4.98 0 10.75.02 21.5.02 32.27zm70.66-29.56c-7.64 20.88-14.87 41.93-22.14 62.94-.87 2.52-2.38 3.57-4.87 3.82-8.06.77-9.18.21-11.87-7.38-7.31-20.6-14.56-41.24-21.8-61.88-1.23-3.51-.31-4.92 3.36-5.2.93-.07 1.87-.07 2.8-.05 4.11.08 4.74.59 6.05 4.43 5.95 17.52 11.93 35.04 17.93 52.55.26.75.67 1.46 1.26 2.72 2.08-6.23 3.97-11.87 5.84-17.54 4.33-13.03 8.59-26.09 13.05-39.09.39-1.16 1.97-1.95 3.03-2.87.18-.15.54-.13.82-.15 7.79-.36 9.23.35 6.54 7.7zm48.65 66.45c-10.77.03-21.55.05-32.32.02-3.93-.02-5.47-1.54-5.47-5.44-.02-20.98-.02-41.96.02-62.94 0-3.88 1.52-5.38 5.51-5.39 10.59-.03 21.18-.03 31.75-.02 3.31 0 4.41 1.31 4.39 5.03-.02 3.72-1.03 4.84-4.49 4.84-7.59.02-15.18.07-22.77-.03-2.03-.03-2.84.51-2.79 2.67.13 5.87.05 11.74.05 17.88 7.41 0 14.24-.1 21.06.08 1.48.03 4 .85 4.18 1.7.48 2.25.07 4.72-.34 7.05-.08.44-1.77.84-2.7.84-6.46.08-12.92.13-19.37 0-2.21-.05-2.93.61-2.88 2.84.13 5.52.02 11.05.03 16.57.02 4.31.05 4.29 4.21 4.29 7.31 0 14.62-.02 21.91.03 3.39.03 4.18 1.07 4.16 5.11.01 3.86-.81 4.86-4.14 4.87z" style="fill:url(#c)"/><radialGradient id="d" cx="384.755" cy="88.124" r="260.25" gradientTransform="scale(1 -1) rotate(-45 -124.567 .15)" gradientUnits="userSpaceOnUse"><stop offset="0" style="stop-color:#fff"/><stop offset=".409" style="stop-color:#fcfcfc"/><stop offset=".769" style="stop-color:#f1f1f1"/><stop offset="1" style="stop-color:#e6e6e6"/></radialGradient><path d="M205.47 70.5c29.38-11.91 60.44-17.95 92.3-17.95s62.91 6.05 92.3 17.95c23.14 9.38 44.47 22.13 63.67 38l10.64-10.64c-98.49-82.25-243.47-80.36-339.81 5.7l10.62 10.62c20.87-18.54 44.45-33.2 70.28-43.68z" style="fill:url(#d)"/><radialGradient id="e" cx="384.755" cy="88.124" r="260.25" gradientTransform="scale(1 -1) rotate(-45 -124.567 .15)" gradientUnits="userSpaceOnUse"><stop offset="0" style="stop-color:#fff"/><stop offset=".409" style="stop-color:#fcfcfc"/><stop offset=".769" style="stop-color:#f1f1f1"/><stop offset="1" style="stop-color:#e6e6e6"/></radialGradient><path d="M525.07 205.5c11.91 29.38 17.95 60.44 17.95 92.3s-6.05 62.91-17.95 92.3c-10.48 25.84-25.14 49.41-43.68 70.28L492.02 471c86.05-96.34 87.95-241.32 5.7-339.81l-10.64 10.64a242.775 242.775 0 0 1 37.99 63.67z" style="fill:url(#e)"/><radialGradient id="f" cx="384.755" cy="88.124" r="260.25" gradientTransform="scale(1 -1) rotate(-45 -124.567 .15)" gradientUnits="userSpaceOnUse"><stop offset="0" style="stop-color:#fff"/><stop offset=".409" style="stop-color:#fcfcfc"/><stop offset=".769" style="stop-color:#f1f1f1"/><stop offset="1" style="stop-color:#e6e6e6"/></radialGradient><path d="M70.47 390.1c-11.91-29.38-17.95-60.44-17.95-92.3s6.05-62.91 17.95-92.3c8.29-20.43 19.19-39.44 32.56-56.82L92.35 138c-74.86 95.99-73.02 232.38 5.5 326.4l10.63-10.63a242.841 242.841 0 0 1-38.01-63.67z" style="fill:url(#f)"/><radialGradient id="g" cx="384.755" cy="88.124" r="260.25" gradientTransform="scale(1 -1) rotate(-45 -124.567 .15)" gradientUnits="userSpaceOnUse"><stop offset="0" style="stop-color:#fff"/><stop offset=".409" style="stop-color:#fcfcfc"/><stop offset=".769" style="stop-color:#f1f1f1"/><stop offset="1" style="stop-color:#e6e6e6"/></radialGradient><path d="M390.07 525.1c-29.38 11.91-60.44 17.95-92.3 17.95s-62.91-6.05-92.3-17.95a243.08 243.08 0 0 1-63.67-38l-10.63 10.63c94.02 78.52 230.4 80.37 326.4 5.5l-10.68-10.68a242.538 242.538 0 0 1-56.82 32.55z" style="fill:url(#g)"/><radialGradient id="h" cx="384.756" cy="88.123" r="227.581" gradientTransform="matrix(0 1 1 0 209.667 -86.963)" gradientUnits="userSpaceOnUse"><stop offset="0" style="stop-color:#fff"/><stop offset=".409" style="stop-color:#fcfcfc"/><stop offset=".769" style="stop-color:#f1f1f1"/><stop offset="1" style="stop-color:#e6e6e6"/></radialGradient><path d="M518.97 277.18h5.46C514.39 165.42 423.57 76.94 310.78 70.59v5.44c109.79 6.34 198.17 92.39 208.19 201.15z" style="fill:url(#h)"/><radialGradient id="i" cx="384.756" cy="88.123" r="227.581" gradientTransform="matrix(0 1 1 0 209.667 -86.963)" gradientUnits="userSpaceOnUse"><stop offset="0" style="stop-color:#fff"/><stop offset=".409" style="stop-color:#fcfcfc"/><stop offset=".769" style="stop-color:#f1f1f1"/><stop offset="1" style="stop-color:#e6e6e6"/></radialGradient><path d="M518.98 318.41c-10.02 108.76-98.41 194.81-208.19 201.15V525c112.78-6.36 203.6-94.84 213.64-206.6h-5.45z" style="fill:url(#i)"/><radialGradient id="j" cx="384.756" cy="88.123" r="227.581" gradientTransform="matrix(0 1 1 0 209.667 -86.963)" gradientUnits="userSpaceOnUse"><stop offset="0" style="stop-color:#fff"/><stop offset=".409" style="stop-color:#fcfcfc"/><stop offset=".769" style="stop-color:#f1f1f1"/><stop offset="1" style="stop-color:#e6e6e6"/></radialGradient><path d="M269.56 77.44v-5.48C163.92 85.03 80.72 170.5 71.14 277.19h5.46C86.14 173.5 166.92 90.45 269.56 77.44z" style="fill:url(#j)"/><radialGradient id="k" cx="384.756" cy="88.123" r="227.581" gradientTransform="matrix(0 1 1 0 209.667 -86.963)" gradientUnits="userSpaceOnUse"><stop offset="0" style="stop-color:#fff"/><stop offset=".409" style="stop-color:#fcfcfc"/><stop offset=".769" style="stop-color:#f1f1f1"/><stop offset="1" style="stop-color:#e6e6e6"/></radialGradient><path d="M76.59 318.4h-5.46c9.58 106.69 92.77 192.16 198.43 205.23v-5.48C166.91 505.14 86.14 422.09 76.59 318.4z" style="fill:url(#k)"/></svg>