<svg xmlns="http://www.w3.org/2000/svg" viewBox="0 0 595.28 595.28" style="enable-background:new 0 0 595.28 595.28" xml:space="preserve"><radialGradient id="a" cx="297.632" cy="298.257" r="211.712" gradientTransform="matrix(1 0 0 -1 0 595.89)" gradientUnits="userSpaceOnUse"><stop offset="0" style="stop-color:#fff"/><stop offset=".409" style="stop-color:#fcfcfc"/><stop offset=".769" style="stop-color:#f1f1f1"/><stop offset="1" style="stop-color:#e6e6e6"/></radialGradient><path d="M192.26 430.43c5.84 0 11.69.26 17.51-.06 7.52-.41 12.63 2.58 16.29 9.16 6.07 10.93 12.36 21.75 19 32.33 1.57 2.5 4.62 4.94 7.44 5.65 29.83 7.6 59.8 7.74 89.64.1 3.15-.81 6.54-3.55 8.32-6.35 6.7-10.55 12.88-21.43 19.04-32.31 3.45-6.09 8.34-8.78 15.34-8.65 12.51.23 25.03.29 37.53-.1 2.94-.09 6.57-1.47 8.6-3.53 21.79-22.1 36.85-48.25 45.24-78.11.83-2.94.13-7.03-1.36-9.78-5.95-10.99-12.38-21.73-18.84-32.43-3.63-6-3.57-11.59.06-17.59 6.58-10.87 13.04-21.83 19.15-32.97 1.33-2.42 2-6.02 1.29-8.62-8.29-30.62-23.87-57.13-46.17-79.63-1.65-1.67-4.67-2.72-7.08-2.77-12.92-.27-25.86-.27-38.78-.07-6.76.11-11.49-2.51-14.8-8.41-6.42-11.45-12.96-22.83-19.74-34.07-1.26-2.09-3.64-4.29-5.9-4.86-30.43-7.67-60.97-8.25-91.43-.17-2.64.7-5.53 2.93-6.97 5.27-6.86 11.18-13.35 22.6-19.8 34.03-3.2 5.66-7.78 8.25-14.28 8.2-16.05-.13-32.11-.08-48.17.02-5.99.04-10.66-2.05-13.07-7.7-2.54-5.96-.58-10.99 4.01-15.16 33.52-30.44 72.45-49.83 117.62-54.39 84.83-8.56 152.73 22.68 201.09 92.36 83.72 120.63 15.77 291.85-127.49 323.97-118.85 26.66-232.9-47.94-256.22-167.87-5.31-27.3-4.48-54.74 1.1-82 1.34-6.56 4.14-11.85 11.42-13.21 5.77-1.07 10.62 1.94 14.82 9.18 7.22 12.43 14.22 25 21.67 37.28 4.39 7.24 4.34 13.8-.14 20.99-6.39 10.25-12.42 20.74-18.14 31.38-1.39 2.58-2 6.46-1.19 9.21 8.61 29.27 23.29 55.12 44.32 77.34 2.95 3.11 5.93 4.68 10.31 4.43 6.23-.35 12.5-.09 18.76-.09z" style="fill:url(#a)"/><radialGradient id="b" cx="297.835" cy="298.316" r="70.024" gradientTransform="matrix(1 0 0 -1 0 595.89)" gradientUnits="userSpaceOnUse"><stop offset="0" style="stop-color:#fff"/><stop offset=".409" style="stop-color:#fcfcfc"/><stop offset=".769" style="stop-color:#f1f1f1"/><stop offset="1" style="stop-color:#e6e6e6"/></radialGradient><path d="M297.81 231.48c9.38 0 18.76.12 28.13-.04 6.69-.11 11.52 2.48 14.85 8.38 9.33 16.49 18.78 32.91 28.27 49.31 3.36 5.79 3.28 11.34-.07 17.1-9.3 16.03-18.55 32.09-27.68 48.22-3.53 6.23-8.59 9.28-15.76 9.25-18.55-.08-37.09-.1-55.64.01-6.91.04-11.8-2.62-15.25-8.79a2471.59 2471.59 0 0 0-27.71-48.19c-3.67-6.22-3.81-11.91-.13-18.16a2802.87 2802.87 0 0 0 28.04-48.72c3.35-5.96 8.15-8.49 14.81-8.39 9.38.12 18.76.02 28.14.02z" style="fill:url(#b)"/><g><radialGradient id="c" cx="297.632" cy="543.65" r="260.25" gradientTransform="rotate(45.001 594.588 420.645)" gradientUnits="userSpaceOnUse"><stop offset="0" style="stop-color:#fff"/><stop offset=".409" style="stop-color:#fcfcfc"/><stop offset=".769" style="stop-color:#f1f1f1"/><stop offset="1" style="stop-color:#e6e6e6"/></radialGradient><path d="M205.33 70.36c29.38-11.91 60.44-17.95 92.3-17.95s62.91 6.05 92.3 17.95c23.14 9.38 44.47 22.13 63.67 38l10.64-10.64c-98.49-82.25-243.47-80.36-339.81 5.7l10.62 10.62c20.86-18.54 44.44-33.2 70.28-43.68z" style="fill:url(#c)"/><radialGradient id="d" cx="297.632" cy="543.65" r="260.25" gradientTransform="rotate(45.001 594.588 420.645)" gradientUnits="userSpaceOnUse"><stop offset="0" style="stop-color:#fff"/><stop offset=".409" style="stop-color:#fcfcfc"/><stop offset=".769" style="stop-color:#f1f1f1"/><stop offset="1" style="stop-color:#e6e6e6"/></radialGradient><path d="M524.92 205.36c11.91 29.38 17.95 60.44 17.95 92.3s-6.05 62.91-17.95 92.3c-10.48 25.84-25.14 49.41-43.68 70.28l10.62 10.62c86.05-96.34 87.95-241.32 5.7-339.81l-10.64 10.64a242.375 242.375 0 0 1 38 63.67z" style="fill:url(#d)"/><radialGradient id="e" cx="297.632" cy="543.65" r="260.25" gradientTransform="rotate(45.001 594.588 420.645)" gradientUnits="userSpaceOnUse"><stop offset="0" style="stop-color:#fff"/><stop offset=".409" style="stop-color:#fcfcfc"/><stop offset=".769" style="stop-color:#f1f1f1"/><stop offset="1" style="stop-color:#e6e6e6"/></radialGradient><path d="M70.33 389.96c-11.91-29.38-17.95-60.44-17.95-92.3s6.05-62.91 17.95-92.3c8.29-20.43 19.19-39.44 32.56-56.82L92.2 137.86c-74.86 95.99-73.02 232.38 5.5 326.4l10.63-10.63a242.537 242.537 0 0 1-38-63.67z" style="fill:url(#e)"/><radialGradient id="f" cx="297.632" cy="543.65" r="260.25" gradientTransform="rotate(45.001 594.588 420.645)" gradientUnits="userSpaceOnUse"><stop offset="0" style="stop-color:#fff"/><stop offset=".409" style="stop-color:#fcfcfc"/><stop offset=".769" style="stop-color:#f1f1f1"/><stop offset="1" style="stop-color:#e6e6e6"/></radialGradient><path d="M389.92 524.96c-29.38 11.91-60.44 17.95-92.3 17.95s-62.91-6.05-92.3-17.95a243.08 243.08 0 0 1-63.67-38l-10.63 10.63c94.02 78.52 230.4 80.37 326.4 5.5l-10.68-10.68c-17.37 13.36-36.38 24.26-56.82 32.55z" style="fill:url(#f)"/></g></svg>