<svg xmlns="http://www.w3.org/2000/svg" viewBox="0 0 595.28 595.28" style="enable-background:new 0 0 595.28 595.28" xml:space="preserve"><radialGradient id="a" cx="293.608" cy="289.542" r="154.077" gradientTransform="matrix(1 0 0 -1 0 595.89)" gradientUnits="userSpaceOnUse"><stop offset="0" style="stop-color:#fff"/><stop offset=".409" style="stop-color:#fcfcfc"/><stop offset=".769" style="stop-color:#f1f1f1"/><stop offset="1" style="stop-color:#e6e6e6"/></radialGradient><path d="M434.7 297.2c-7.48-9.68-11.01-20.99-15.3-32.09-8.47-21.93-16.52-44.1-31.66-62.69-.79-.96-2.12-29.74-2.07-46.97-4.33 3.45-8.66 6.91-13.72 10.93 1.15-7.07 2.18-13.36 3.45-21.17-8.66 6.67-16.17 12.59-23.87 18.27-1.58 1.16-3.87 2.05-5.78 1.96-9.41-.46-18.8-1.27-28.2-1.99-18.96-1.45-37.92-2.91-56.88-4.38-2.34-.18-4.67-.42-7-.64l-.12.88c5.32 2.88 10.64 5.75 15.96 8.63-.11.38-.22.76-.34 1.14l-42.43 3.71 17.45 8.26c-.1.38-.2.77-.31 1.15-13.28 1.44-26.57 2.89-41.26 4.49 6.07 3.63 10.73 6.41 16.57 9.91-12.12 1.66-22.72 3.11-34.45 4.71 6.4 3.12 11.65 5.68 18.14 8.84-12.11 3.36-22.57 6.27-34.09 9.46 7.06 2.13 13.15 3.97 20.74 6.25-10.84 3.55-20.26 6.63-30.44 9.97l17.25 5.51c-8.28 4.62-15.37 8.57-23.21 12.94l16.28 5.57c-7.83 6.08-14.93 11.59-22.48 17.45 5.52.93 10.16 1.72 15.51 2.62-5.21 6.47-9.78 12.16-15.3 19.03h15.43c-3.55 24.25-.67 47.22 4.63 71.21.44-1.55.6-1.84.59-2.13-.1-2.19-.24-4.38-.35-6.56-1.31-25.98-.46-51.72 6.58-77.05 11.33-40.78 35.5-71.09 72.83-90.93 25.3-13.45 52.54-20.05 80.84-22.86 5.4-.54 10.83-.73 16.24-1.09.3.52-11.99 8.13-14.92 8.78-9.64 2.13-11.43 2.59-21.13 4.48-20.16 3.94-40.09 9.1-57.72 20.03-32.11 19.9-54.98 47.46-67.18 83.6-6.1 18.07-9.73 36.48-7.64 55.48 3.07 27.95 16.54 50.9 36.39 70.23 24.36 23.71 54.1 37.79 86.5 46.56 12.28 3.33 24.86 5.57 37.37 7.96 2.3.44 5.98 2.42 7.17-1.98 4.44-16.38 6.58-32.91 3.71-49.89-2.06-12.18-8.96-21.83-15.17-32.04-12.35-20.29-20.75-41.94-17.62-66.34 1.86-14.52 9.41-25.44 22.59-32.08 3.71 4.31 6.94 8.42 10.55 12.16 3.74 3.87 7.67 7.6 11.84 11 7.89 6.44 16.59 11.69 26.69 13.55 3.94.73 5.21 2.32 6.09 5.81 1.83 7.26 5.34 13.57 12.81 16.38 14.68 5.51 33.7-5.89 35.6-21.39 1.09-8.73.33-17.54-5.16-24.64zm-50.67-52.92-20.7-16.22 32.17 10.91-11.47 5.31z" style="fill:url(#a)"/><radialGradient id="b" cx="297.64" cy="543.64" r="260.25" gradientTransform="rotate(45.001 594.596 420.635)" gradientUnits="userSpaceOnUse"><stop offset="0" style="stop-color:#fff"/><stop offset=".409" style="stop-color:#fcfcfc"/><stop offset=".769" style="stop-color:#f1f1f1"/><stop offset="1" style="stop-color:#e6e6e6"/></radialGradient><path d="M205.33 70.35c29.38-11.91 60.44-17.95 92.3-17.95s62.91 6.05 92.3 17.95c23.14 9.38 44.47 22.13 63.67 38l10.64-10.64c-98.49-82.25-243.47-80.36-339.81 5.7l10.62 10.62c20.87-18.54 44.45-33.2 70.28-43.68z" style="fill:url(#b)"/><radialGradient id="c" cx="297.64" cy="543.64" r="260.25" gradientTransform="rotate(45.001 594.596 420.635)" gradientUnits="userSpaceOnUse"><stop offset="0" style="stop-color:#fff"/><stop offset=".409" style="stop-color:#fcfcfc"/><stop offset=".769" style="stop-color:#f1f1f1"/><stop offset="1" style="stop-color:#e6e6e6"/></radialGradient><path d="M524.93 205.35c11.91 29.38 17.95 60.44 17.95 92.3s-6.05 62.91-17.95 92.3c-10.48 25.84-25.14 49.41-43.68 70.28l10.62 10.62c86.05-96.34 87.95-241.32 5.7-339.81l-10.64 10.64a242.375 242.375 0 0 1 38 63.67z" style="fill:url(#c)"/><radialGradient id="d" cx="297.64" cy="543.64" r="260.25" gradientTransform="rotate(45.001 594.596 420.635)" gradientUnits="userSpaceOnUse"><stop offset="0" style="stop-color:#fff"/><stop offset=".409" style="stop-color:#fcfcfc"/><stop offset=".769" style="stop-color:#f1f1f1"/><stop offset="1" style="stop-color:#e6e6e6"/></radialGradient><path d="M70.33 389.95c-11.91-29.38-17.95-60.44-17.95-92.3s6.05-62.91 17.95-92.3c8.29-20.43 19.19-39.44 32.56-56.82l-10.68-10.68c-74.86 95.99-73.02 232.38 5.5 326.4l10.63-10.63a242.841 242.841 0 0 1-38.01-63.67z" style="fill:url(#d)"/><radialGradient id="e" cx="297.64" cy="543.64" r="260.25" gradientTransform="rotate(45.001 594.596 420.635)" gradientUnits="userSpaceOnUse"><stop offset="0" style="stop-color:#fff"/><stop offset=".409" style="stop-color:#fcfcfc"/><stop offset=".769" style="stop-color:#f1f1f1"/><stop offset="1" style="stop-color:#e6e6e6"/></radialGradient><path d="M389.93 524.95c-29.38 11.91-60.44 17.95-92.3 17.95s-62.91-6.05-92.3-17.95a243.08 243.08 0 0 1-63.67-38l-10.63 10.63c94.02 78.52 230.4 80.37 326.4 5.5l-10.68-10.68a242.538 242.538 0 0 1-56.82 32.55z" style="fill:url(#e)"/><radialGradient id="f" cx="297.683" cy="543.599" r="211.052" gradientTransform="rotate(45.001 594.596 420.635)" gradientUnits="userSpaceOnUse"><stop offset="0" style="stop-color:#fff"/><stop offset=".409" style="stop-color:#fcfcfc"/><stop offset=".769" style="stop-color:#f1f1f1"/><stop offset="1" style="stop-color:#e6e6e6"/></radialGradient><path d="m454.19 433.16.01.01c1.72 1.72 4.53 1.58 6.09-.29 63.24-75.89 65.1-185.64 5.56-263.52a4.125 4.125 0 0 0-6.19-.42l-.01.01c-1.46 1.46-1.59 3.78-.34 5.43 57.2 74.85 55.41 180.34-5.4 253.26a4.125 4.125 0 0 0 .28 5.52z" style="fill:url(#f)"/><radialGradient id="g" cx="297.597" cy="543.599" r="210.959" gradientTransform="rotate(45.001 594.596 420.635)" gradientUnits="userSpaceOnUse"><stop offset="0" style="stop-color:#fff"/><stop offset=".409" style="stop-color:#fcfcfc"/><stop offset=".769" style="stop-color:#f1f1f1"/><stop offset="1" style="stop-color:#e6e6e6"/></radialGradient><path d="m426.32 135.63.01-.01c1.76-1.76 1.56-4.67-.42-6.19-77.88-59.54-187.63-57.68-263.52 5.56-1.87 1.56-2.01 4.37-.29 6.09l.01.01c1.49 1.49 3.89 1.63 5.51.28 72.92-60.8 178.41-62.6 253.26-5.4 1.66 1.25 3.98 1.12 5.44-.34z" style="fill:url(#g)"/><radialGradient id="h" cx="297.547" cy="543.737" r="210.829" gradientTransform="rotate(45.001 594.596 420.635)" gradientUnits="userSpaceOnUse"><stop offset="0" style="stop-color:#fff"/><stop offset=".409" style="stop-color:#fcfcfc"/><stop offset=".769" style="stop-color:#f1f1f1"/><stop offset="1" style="stop-color:#e6e6e6"/></radialGradient><path d="m130.43 176.07-.03-.03c-1.81-1.81-4.82-1.54-6.29.57-52.38 74.91-50.6 176.17 5.31 249.3 1.51 1.98 4.43 2.19 6.19.42l.01-.01c1.46-1.46 1.59-3.78.34-5.43-53.71-70.27-55.41-167.56-5.09-239.54 1.15-1.64.97-3.87-.44-5.28z" style="fill:url(#h)"/><radialGradient id="i" cx="297.733" cy="543.737" r="210.701" gradientTransform="rotate(45.001 594.596 420.635)" gradientUnits="userSpaceOnUse"><stop offset="0" style="stop-color:#fff"/><stop offset=".409" style="stop-color:#fcfcfc"/><stop offset=".769" style="stop-color:#f1f1f1"/><stop offset="1" style="stop-color:#e6e6e6"/></radialGradient><path d="m168.96 459.65-.01.01a4.118 4.118 0 0 0 .42 6.19c73.14 55.91 174.39 57.69 249.3 5.31 2.11-1.47 2.38-4.48.57-6.29l-.02-.02c-1.42-1.42-3.64-1.59-5.29-.44-71.98 50.32-169.27 48.62-239.54-5.09-1.65-1.26-3.97-1.13-5.43.33z" style="fill:url(#i)"/><radialGradient id="j" cx="297.64" cy="70.235" r="20.651" gradientTransform="scale(1 -1) rotate(-45 -421.667 .305)" gradientUnits="userSpaceOnUse"><stop offset="0" style="stop-color:#fff"/><stop offset=".409" style="stop-color:#fcfcfc"/><stop offset=".769" style="stop-color:#f1f1f1"/><stop offset="1" style="stop-color:#e6e6e6"/></radialGradient><path d="M148.07 447.21c-4.2-4.2-8.18-8.53-11.95-13a5.466 5.466 0 0 0-8.05-.34l-16.16 16.16a5.493 5.493 0 0 0-.27 7.47c4 4.65 8.2 9.17 12.58 13.56s8.9 8.58 13.56 12.58a5.493 5.493 0 0 0 7.47-.27l16.16-16.16a5.466 5.466 0 0 0-.34-8.05c-4.47-3.76-8.8-7.75-13-11.95z" style="fill:url(#j)"/><radialGradient id="k" cx="525.219" cy="289.555" r="20.837" gradientTransform="scale(1 -1) rotate(-45 -421.667 .305)" gradientUnits="userSpaceOnUse"><stop offset="0" style="stop-color:#fff"/><stop offset=".409" style="stop-color:#fcfcfc"/><stop offset=".769" style="stop-color:#f1f1f1"/><stop offset="1" style="stop-color:#e6e6e6"/></radialGradient><path d="M447.21 447.21a213.328 213.328 0 0 1-19.58 17.33c-2.6 2.04-2.86 5.87-.52 8.2l16.21 16.21a5.484 5.484 0 0 0 7.32.39c7.09-5.68 13.91-11.77 20.41-18.28 2.28-2.28 4.49-4.59 6.66-6.94a5.495 5.495 0 0 0-.15-7.6l-16.11-16.11a5.471 5.471 0 0 0-7.91.18c-2.05 2.25-4.15 4.45-6.33 6.62z" style="fill:url(#k)"/><radialGradient id="l" cx="70.056" cy="289.545" r="20.835" gradientTransform="scale(1 -1) rotate(-45 -421.667 .305)" gradientUnits="userSpaceOnUse"><stop offset="0" style="stop-color:#fff"/><stop offset=".409" style="stop-color:#fcfcfc"/><stop offset=".769" style="stop-color:#f1f1f1"/><stop offset="1" style="stop-color:#e6e6e6"/></radialGradient><path d="M148.07 148.07c2.17-2.17 4.38-4.28 6.61-6.33 2.31-2.11 2.39-5.7.18-7.91l-16.11-16.11a5.485 5.485 0 0 0-7.6-.15c-2.35 2.17-4.67 4.38-6.94 6.66-6.51 6.51-12.6 13.32-18.28 20.41a5.496 5.496 0 0 0 .39 7.32l16.21 16.21c2.33 2.33 6.17 2.08 8.2-.52 5.31-6.79 11.08-13.33 17.34-19.58z" style="fill:url(#l)"/><radialGradient id="m" cx="297.64" cy="526.26" r="20.649" gradientTransform="scale(1 -1) rotate(-45 -421.667 .305)" gradientUnits="userSpaceOnUse"><stop offset="0" style="stop-color:#fff"/><stop offset=".409" style="stop-color:#fcfcfc"/><stop offset=".769" style="stop-color:#f1f1f1"/><stop offset="1" style="stop-color:#e6e6e6"/></radialGradient><path d="M447.21 148.07c4.2 4.2 8.18 8.53 11.95 13a5.466 5.466 0 0 0 8.05.34l16.16-16.16a5.493 5.493 0 0 0 .27-7.47c-4-4.65-8.2-9.17-12.58-13.56s-8.9-8.58-13.56-12.58a5.493 5.493 0 0 0-7.47.27l-16.15 16.15a5.466 5.466 0 0 0 .34 8.05c4.46 3.77 8.79 7.76 12.99 11.96z" style="fill:url(#m)"/></svg>