<svg xmlns="http://www.w3.org/2000/svg" viewBox="0 0 595.28 595.28" style="enable-background:new 0 0 595.28 595.28" xml:space="preserve"><radialGradient id="a" cx="386.033" cy="88.318" r="260.25" gradientTransform="scale(1 -1) rotate(-45 -124.567 .15)" gradientUnits="userSpaceOnUse"><stop offset="0" style="stop-color:#fff"/><stop offset=".409" style="stop-color:#fcfcfc"/><stop offset=".769" style="stop-color:#f1f1f1"/><stop offset="1" style="stop-color:#e6e6e6"/></radialGradient><path d="M206.51 71.27c29.38-11.91 60.44-17.95 92.3-17.95s62.91 6.05 92.3 17.95c23.14 9.38 44.47 22.13 63.67 38l10.64-10.64c-98.49-82.25-243.47-80.36-339.81 5.7l10.62 10.62c20.87-18.54 44.45-33.2 70.28-43.68z" style="fill:url(#a)"/><radialGradient id="b" cx="386.033" cy="88.318" r="260.25" gradientTransform="scale(1 -1) rotate(-45 -124.567 .15)" gradientUnits="userSpaceOnUse"><stop offset="0" style="stop-color:#fff"/><stop offset=".409" style="stop-color:#fcfcfc"/><stop offset=".769" style="stop-color:#f1f1f1"/><stop offset="1" style="stop-color:#e6e6e6"/></radialGradient><path d="M526.11 206.27c11.91 29.38 17.95 60.44 17.95 92.3s-6.05 62.91-17.95 92.3c-10.48 25.84-25.14 49.41-43.68 70.28l10.63 10.62c86.05-96.34 87.95-241.32 5.7-339.81l-10.64 10.64a242.775 242.775 0 0 1 37.99 63.67z" style="fill:url(#b)"/><radialGradient id="c" cx="386.033" cy="88.318" r="260.25" gradientTransform="scale(1 -1) rotate(-45 -124.567 .15)" gradientUnits="userSpaceOnUse"><stop offset="0" style="stop-color:#fff"/><stop offset=".409" style="stop-color:#fcfcfc"/><stop offset=".769" style="stop-color:#f1f1f1"/><stop offset="1" style="stop-color:#e6e6e6"/></radialGradient><path d="M71.51 390.87c-11.91-29.38-17.95-60.44-17.95-92.3s6.05-62.91 17.95-92.3c8.29-20.43 19.19-39.44 32.56-56.82l-10.68-10.68c-74.86 95.99-73.02 232.38 5.5 326.4l10.63-10.63a242.841 242.841 0 0 1-38.01-63.67z" style="fill:url(#c)"/><radialGradient id="d" cx="386.033" cy="88.318" r="260.25" gradientTransform="scale(1 -1) rotate(-45 -124.567 .15)" gradientUnits="userSpaceOnUse"><stop offset="0" style="stop-color:#fff"/><stop offset=".409" style="stop-color:#fcfcfc"/><stop offset=".769" style="stop-color:#f1f1f1"/><stop offset="1" style="stop-color:#e6e6e6"/></radialGradient><path d="M391.11 525.87c-29.38 11.91-60.44 17.95-92.3 17.95s-62.91-6.05-92.3-17.95a243.08 243.08 0 0 1-63.67-38l-10.63 10.63c94.02 78.52 230.4 80.37 326.4 5.5l-10.68-10.68a242.538 242.538 0 0 1-56.82 32.55z" style="fill:url(#d)"/><g><radialGradient id="e" cx="437.882" cy="298.944" r="25.79" gradientUnits="userSpaceOnUse"><stop offset="0" style="stop-color:#fff"/><stop offset=".409" style="stop-color:#fcfcfc"/><stop offset=".769" style="stop-color:#f1f1f1"/><stop offset="1" style="stop-color:#e6e6e6"/></radialGradient><path d="M453.7 317.01c.54-11.96.6-23.97-.02-35.92-.14-2.74-3.16-6.75-5.74-7.67-8.28-2.94-16.97-4.71-26.31-7.13v65.31c9.54-2.45 18.46-4.3 27.02-7.23 2.33-.79 4.93-4.75 5.05-7.36z" style="fill:url(#e)"/><radialGradient id="f" cx="437.452" cy="216.012" r="33.076" gradientUnits="userSpaceOnUse"><stop offset="0" style="stop-color:#fff"/><stop offset=".409" style="stop-color:#fcfcfc"/><stop offset=".769" style="stop-color:#f1f1f1"/><stop offset="1" style="stop-color:#e6e6e6"/></radialGradient><path d="M431.82 208.2c.43 13.81.69 27.65.02 41.44-.41 8.53 3.27 11.03 11.53 10.54 0-17.45-.19-34.87.18-52.28.07-3.09 1.78-6.78 3.93-9.07 6.42-6.84 7.1-15.99.94-22.39-6.11-6.34-16.38-6.18-22.3.35-5.93 6.55-4.91 15.61 1.74 22.33 2.19 2.22 3.86 5.97 3.96 9.08z" style="fill:url(#f)"/><path d="M211.14 236.47H381.4c5.94 0 10.75-4.81 10.75-10.75v-21.65c0-5.94-4.81-10.75-10.75-10.75H211.14c-5.94 0-10.75 4.81-10.75 10.75v21.65c0 5.94 4.81 10.75 10.75 10.75z" style="opacity:.2;fill:#fff"/><path d="M381.4 193.32H211.14c-5.94 0-10.75 4.81-10.75 10.75v21.65c0 5.94 4.81 10.75 10.75 10.75H381.4c5.94 0 10.75-4.81 10.75-10.75v-21.65c0-5.94-4.81-10.75-10.75-10.75z" style="fill:none"/><radialGradient id="g" cx="296.218" cy="298.565" r="124.581" gradientUnits="userSpaceOnUse"><stop offset="0" style="stop-color:#fff"/><stop offset=".409" style="stop-color:#fcfcfc"/><stop offset=".769" style="stop-color:#f1f1f1"/><stop offset="1" style="stop-color:#e6e6e6"/></radialGradient><path d="M412 186.2c-.01-13.43-6.7-20.42-19.13-20.42-63.18.02-126.36.03-189.54.04-16.69 0-22.9 6.01-22.9 22.42-.02 71.65-.01 143.3 0 214.96 0 15.54 12.6 28.13 28.14 28.13H383.9c15.54 0 28.13-12.6 28.14-28.13v-49.39c-.02-55.86 0-111.73-.04-167.61zm-34.34 128.2a7.09 7.09 0 0 1-7.09 7.09H222.63a7.09 7.09 0 0 1-7.09-7.09v-43.1a7.09 7.09 0 0 1 7.09-7.09h147.94a7.09 7.09 0 0 1 7.09 7.09v43.1zm14.49-88.68c0 5.94-4.81 10.75-10.75 10.75H211.14c-5.94 0-10.75-4.81-10.75-10.75v-21.65c0-5.94 4.81-10.75 10.75-10.75H381.4c5.94 0 10.75 4.81 10.75 10.75v21.65z" style="fill:url(#g)"/><radialGradient id="h" cx="299.131" cy="294.364" r="60.292" gradientTransform="matrix(1.0052 0 0 1.0334 -4.09 -11.352)" gradientUnits="userSpaceOnUse"><stop offset="0" style="stop-color:#fff"/><stop offset=".409" style="stop-color:#fcfcfc"/><stop offset=".769" style="stop-color:#f1f1f1"/><stop offset="1" style="stop-color:#e6e6e6"/></radialGradient><path d="M243.23 309.57h15.3c2.73 0 4.95-2.22 4.95-4.95v-22.13c0-2.73-2.22-4.95-4.95-4.95h-15.3c-2.73 0-4.95 2.22-4.95 4.95v22.13c.01 2.73 2.22 4.95 4.95 4.95z" style="fill:url(#h)"/><radialGradient id="i" cx="299.131" cy="294.364" r="60.292" gradientTransform="matrix(1.0052 0 0 1.0334 -4.09 -11.352)" gradientUnits="userSpaceOnUse"><stop offset="0" style="stop-color:#fff"/><stop offset=".409" style="stop-color:#fcfcfc"/><stop offset=".769" style="stop-color:#f1f1f1"/><stop offset="1" style="stop-color:#e6e6e6"/></radialGradient><path d="M273.58 309.57h15.3c2.73 0 4.95-2.22 4.95-4.95v-22.13c0-2.73-2.22-4.95-4.95-4.95h-15.3c-2.73 0-4.95 2.22-4.95 4.95v22.13c.01 2.73 2.22 4.95 4.95 4.95z" style="fill:url(#i)"/><radialGradient id="j" cx="299.131" cy="294.364" r="60.292" gradientTransform="matrix(1.0052 0 0 1.0334 -4.09 -11.352)" gradientUnits="userSpaceOnUse"><stop offset="0" style="stop-color:#fff"/><stop offset=".409" style="stop-color:#fcfcfc"/><stop offset=".769" style="stop-color:#f1f1f1"/><stop offset="1" style="stop-color:#e6e6e6"/></radialGradient><path d="M303.77 309.57h15.3c2.73 0 4.95-2.22 4.95-4.95v-22.13c0-2.73-2.22-4.95-4.95-4.95h-15.3c-2.73 0-4.95 2.22-4.95 4.95v22.13c0 2.73 2.21 4.95 4.95 4.95z" style="fill:url(#j)"/><radialGradient id="k" cx="299.131" cy="294.364" r="60.292" gradientTransform="matrix(1.0052 0 0 1.0334 -4.09 -11.352)" gradientUnits="userSpaceOnUse"><stop offset="0" style="stop-color:#fff"/><stop offset=".409" style="stop-color:#fcfcfc"/><stop offset=".769" style="stop-color:#f1f1f1"/><stop offset="1" style="stop-color:#e6e6e6"/></radialGradient><path d="M349.22 277.54h-15.3c-2.73 0-4.95 2.22-4.95 4.95v22.13c0 2.73 2.22 4.95 4.95 4.95h15.3c2.73 0 4.95-2.22 4.95-4.95v-22.13c0-2.73-2.22-4.95-4.95-4.95z" style="fill:url(#k)"/></g><g><radialGradient id="l" cx="508.527" cy="629.724" r="227.581" gradientTransform="rotate(90 569.26 359.297)" gradientUnits="userSpaceOnUse"><stop offset="0" style="stop-color:#fff"/><stop offset=".409" style="stop-color:#fcfcfc"/><stop offset=".769" style="stop-color:#f1f1f1"/><stop offset="1" style="stop-color:#e6e6e6"/></radialGradient><path d="M520.01 277.95h5.46C515.43 166.19 424.61 77.71 311.82 71.36v5.44c109.79 6.34 198.17 92.39 208.19 201.15z" style="fill:url(#l)"/><radialGradient id="m" cx="508.527" cy="629.724" r="227.581" gradientTransform="rotate(90 569.26 359.297)" gradientUnits="userSpaceOnUse"><stop offset="0" style="stop-color:#fff"/><stop offset=".409" style="stop-color:#fcfcfc"/><stop offset=".769" style="stop-color:#f1f1f1"/><stop offset="1" style="stop-color:#e6e6e6"/></radialGradient><path d="M520.02 319.18C510 427.94 421.61 513.99 311.83 520.33v5.44c112.78-6.36 203.6-94.84 213.64-206.6h-5.45v.01z" style="fill:url(#m)"/><radialGradient id="n" cx="508.527" cy="629.724" r="227.581" gradientTransform="rotate(90 569.26 359.297)" gradientUnits="userSpaceOnUse"><stop offset="0" style="stop-color:#fff"/><stop offset=".409" style="stop-color:#fcfcfc"/><stop offset=".769" style="stop-color:#f1f1f1"/><stop offset="1" style="stop-color:#e6e6e6"/></radialGradient><path d="M270.6 78.21v-5.48C164.96 85.8 81.76 171.27 72.18 277.96h5.46C87.18 174.27 167.96 91.22 270.6 78.21z" style="fill:url(#n)"/><radialGradient id="o" cx="508.527" cy="629.724" r="227.581" gradientTransform="rotate(90 569.26 359.297)" gradientUnits="userSpaceOnUse"><stop offset="0" style="stop-color:#fff"/><stop offset=".409" style="stop-color:#fcfcfc"/><stop offset=".769" style="stop-color:#f1f1f1"/><stop offset="1" style="stop-color:#e6e6e6"/></radialGradient><path d="M77.63 319.17h-5.46c9.58 106.69 92.77 192.16 198.43 205.23v-5.48C167.95 505.91 87.18 422.86 77.63 319.17z" style="fill:url(#o)"/></g></svg>